<svg id="svg" version="1.1" xmlns="http://www.w3.org/2000/svg" xmlns:xlink="http://www.w3.org/1999/xlink" width="400" height="400" viewBox="0, 0, 400,400"><g id="svgg"><path id="path0" d="M291.267 141.808 C 287.555 142.920,286.286 147.794,289.001 150.510 C 290.682 152.191,294.066 152.471,296.088 151.097 C 301.182 147.636,297.230 140.021,291.267 141.808 M197.460 143.837 C 197.361 144.111,193.494 154.777,188.867 167.538 C 184.239 180.299,180.501 190.760,180.559 190.784 C 180.617 190.809,182.959 190.770,185.763 190.698 L 190.862 190.566 192.531 185.510 L 194.200 180.454 202.862 180.559 L 211.523 180.664 213.217 185.623 L 214.911 190.582 220.053 190.701 C 222.881 190.767,225.239 190.806,225.292 190.789 C 225.377 190.761,224.175 187.368,217.344 168.359 C 216.378 165.674,215.070 161.982,214.436 160.156 C 213.801 158.330,212.182 153.848,210.838 150.195 L 208.393 143.555 203.016 143.446 C 198.927 143.363,197.597 143.457,197.460 143.837 M265.625 152.105 L 265.625 156.359 263.281 156.146 L 260.938 155.933 260.938 159.803 L 260.938 163.672 263.281 163.672 L 265.625 163.672 265.625 172.798 C 265.625 189.409,267.804 192.319,279.422 191.230 L 282.371 190.954 282.494 187.040 C 282.615 183.194,282.392 182.296,281.528 183.159 C 281.289 183.398,280.238 183.594,279.193 183.594 C 274.973 183.594,274.609 182.664,274.609 171.888 L 274.609 163.672 278.516 163.672 L 282.422 163.672 282.422 159.862 L 282.422 156.051 278.613 156.053 L 274.805 156.055 274.694 151.838 L 274.583 147.620 270.104 147.736 L 265.625 147.852 265.625 152.105 M206.112 164.052 C 207.692 168.665,208.984 172.488,208.984 172.548 C 208.984 172.607,206.241 172.656,202.888 172.656 C 198.175 172.656,196.832 172.545,196.971 172.168 C 197.070 171.899,198.436 167.813,200.008 163.086 C 201.579 158.359,202.949 154.756,203.052 155.078 C 203.156 155.400,204.533 159.438,206.112 164.052 M238.132 155.879 C 227.555 158.531,222.394 172.279,227.899 183.142 C 233.605 194.403,252.725 194.036,257.010 182.584 C 258.083 179.716,258.065 178.823,256.934 178.947 C 256.450 178.999,254.736 178.887,253.125 178.696 C 251.514 178.505,250.035 178.342,249.840 178.334 C 249.644 178.327,249.293 179.004,249.058 179.840 C 247.314 186.055,238.146 185.127,235.708 178.489 C 231.615 167.343,243.884 156.561,248.788 166.994 C 249.390 168.274,249.820 168.753,250.228 168.596 C 250.547 168.474,252.450 168.258,254.457 168.117 L 258.104 167.860 257.601 165.956 C 255.595 158.350,246.680 153.736,238.132 155.879 M288.281 173.242 C 288.281 189.528,288.324 190.626,288.965 190.647 C 289.341 190.659,291.450 190.703,293.652 190.745 L 297.656 190.820 297.656 173.340 L 297.656 155.859 292.969 155.859 L 288.281 155.859 288.281 173.242 M302.137 156.930 C 302.414 158.032,310.236 179.986,312.810 186.887 L 314.258 190.766 319.293 190.707 C 322.062 190.674,324.366 190.598,324.413 190.538 C 324.461 190.479,325.123 188.584,325.886 186.328 C 327.416 181.800,330.721 172.397,334.261 162.500 L 336.567 156.055 331.903 155.945 C 329.337 155.884,327.183 155.890,327.114 155.959 C 326.895 156.178,319.532 179.965,319.512 180.520 C 319.488 181.153,318.307 177.682,314.278 165.137 L 311.298 155.859 306.583 155.859 L 301.868 155.859 302.137 156.930 M180.078 224.019 L 180.078 247.266 194.531 247.266 L 208.984 247.266 208.985 243.066 L 208.985 238.867 199.219 238.984 L 189.453 239.101 189.453 233.658 C 189.453 228.794,189.526 228.200,190.137 228.063 C 190.513 227.979,194.380 227.926,198.730 227.944 L 206.641 227.978 206.641 223.950 L 206.641 219.922 198.047 219.922 L 189.453 219.922 189.453 214.212 L 189.453 208.503 199.121 208.646 L 208.789 208.789 208.773 204.883 L 208.756 200.977 194.417 200.874 L 180.078 200.772 180.078 224.019 M352.734 208.984 L 352.734 213.281 350.391 213.281 L 348.047 213.281 348.047 216.992 L 348.047 220.703 350.361 220.703 L 352.676 220.703 352.808 230.762 C 353.004 245.763,354.635 248.070,364.679 247.558 C 369.770 247.298,369.531 247.512,369.531 243.214 L 369.531 239.599 367.202 239.767 C 361.929 240.148,361.719 239.734,361.719 228.944 L 361.719 220.703 365.639 220.703 L 369.560 220.703 369.448 216.937 L 369.336 213.172 365.527 213.249 L 361.719 213.327 361.719 209.007 L 361.719 204.688 357.227 204.688 L 352.734 204.688 352.734 208.984 M264.510 212.513 C 262.367 212.955,259.760 214.469,258.440 216.038 L 257.422 217.247 257.422 215.069 L 257.422 212.891 253.125 212.891 L 248.828 212.891 248.828 236.328 L 248.828 259.766 253.418 259.766 L 258.008 259.766 257.902 251.935 C 257.792 243.841,258.048 242.849,259.596 245.355 C 260.916 247.490,268.368 248.392,272.311 246.894 C 279.993 243.975,284.152 234.624,282.035 225.029 C 280.109 216.297,272.502 210.864,264.510 212.513 M298.242 212.661 C 288.642 215.043,283.402 225.713,286.543 236.481 C 291.104 252.117,315.167 251.299,319.316 235.367 C 322.940 221.449,311.687 209.324,298.242 212.661 M340.430 212.375 C 337.990 212.923,336.732 213.594,334.909 215.318 L 332.878 217.239 332.917 215.162 L 332.956 213.086 328.790 212.975 L 324.625 212.864 324.520 230.065 L 324.414 247.266 328.779 247.266 L 333.145 247.266 333.272 237.207 C 333.442 223.674,334.441 221.680,341.051 221.680 L 344.140 221.680 344.140 217.135 C 344.141 211.931,343.882 211.600,340.430 212.375 M214.940 217.676 C 216.740 220.308,219.373 224.134,220.792 226.179 L 223.372 229.897 217.749 238.288 C 214.655 242.904,212.121 246.812,212.117 246.973 C 212.113 247.134,214.293 247.266,216.961 247.266 L 221.812 247.266 225.066 241.808 C 226.856 238.806,228.408 236.351,228.516 236.352 C 228.623 236.354,230.179 238.810,231.972 241.810 L 235.234 247.266 240.273 247.266 C 243.045 247.266,245.313 247.195,245.313 247.109 C 245.313 247.023,242.680 243.080,239.463 238.347 L 233.613 229.741 236.826 224.984 C 238.593 222.367,241.138 218.655,242.480 216.733 C 243.823 214.811,244.922 213.161,244.922 213.065 C 244.922 212.439,234.441 212.937,234.197 213.574 C 233.739 214.769,228.800 223.048,228.555 223.031 C 228.426 223.022,227.002 220.739,225.391 217.958 L 222.461 212.902 217.064 212.896 L 211.667 212.891 214.940 217.676 M268.470 220.461 C 274.567 223.078,275.321 235.074,269.630 238.910 C 265.421 241.746,259.121 239.215,257.853 234.179 C 255.538 224.984,261.389 217.423,268.470 220.461 M305.736 220.337 C 311.337 222.453,312.891 233.475,308.216 237.923 C 303.557 242.355,296.762 240.071,295.058 233.499 C 292.827 224.899,298.688 217.675,305.736 220.337 " stroke="none" fill="#131a1b" fill-rule="evenodd"></path><path id="path1" d="M58.789 136.184 C 56.003 136.536,53.125 137.244,53.125 137.576 C 53.125 137.775,52.949 137.828,52.734 137.695 C 52.520 137.563,52.344 137.635,52.344 137.855 C 52.344 138.076,52.103 138.164,51.808 138.051 C 51.514 137.938,51.007 138.111,50.683 138.435 C 50.358 138.760,49.984 138.916,49.851 138.783 C 49.718 138.650,49.609 138.757,49.609 139.020 C 49.609 139.284,49.440 139.395,49.233 139.267 C 49.026 139.139,48.499 139.392,48.061 139.830 C 47.624 140.267,47.266 140.518,47.266 140.386 C 47.266 140.255,46.901 140.563,46.455 141.070 C 46.009 141.577,45.771 141.729,45.928 141.406 C 46.084 141.084,45.558 141.523,44.759 142.383 C 43.960 143.242,43.439 143.682,43.603 143.359 C 43.858 142.856,43.807 142.849,43.243 143.306 C 42.882 143.599,42.678 143.987,42.790 144.168 C 42.902 144.349,42.549 144.789,42.005 145.145 C 41.461 145.501,41.016 146.036,41.016 146.334 C 41.016 146.632,40.856 146.875,40.660 146.875 C 40.185 146.875,38.246 150.799,38.510 151.227 C 38.625 151.411,38.570 151.563,38.390 151.563 C 37.936 151.563,37.081 153.934,37.367 154.398 C 37.495 154.605,37.389 154.906,37.130 155.065 C 36.585 155.402,36.290 237.500,36.834 237.500 C 37.005 237.500,37.029 238.115,36.888 238.867 C 36.724 239.744,36.783 240.234,37.054 240.234 C 37.286 240.234,37.373 240.500,37.249 240.825 C 37.124 241.150,37.216 241.650,37.453 241.935 C 37.690 242.221,37.768 242.570,37.627 242.712 C 37.485 242.853,37.594 242.969,37.867 242.969 C 38.149 242.969,38.267 243.223,38.140 243.555 C 38.016 243.877,38.065 244.141,38.248 244.141 C 38.578 244.141,39.133 245.434,39.220 246.403 C 39.244 246.681,39.527 247.073,39.847 247.276 C 40.168 247.479,40.278 247.647,40.093 247.650 C 39.909 247.654,40.137 247.964,40.602 248.340 C 41.067 248.717,41.492 249.331,41.547 249.705 C 41.670 250.544,43.755 252.777,44.173 252.519 C 44.341 252.416,44.604 252.537,44.760 252.788 C 44.948 253.092,44.858 253.149,44.494 252.959 C 44.192 252.801,44.441 253.127,45.048 253.685 C 45.654 254.243,46.357 254.580,46.610 254.435 C 46.863 254.290,46.937 254.318,46.774 254.498 C 46.429 254.878,48.431 256.300,48.901 256.009 C 49.076 255.902,49.219 256.029,49.219 256.292 C 49.219 256.555,49.328 256.662,49.461 256.529 C 49.594 256.396,49.968 256.553,50.292 256.877 C 50.617 257.201,51.123 257.374,51.418 257.261 C 51.712 257.148,51.953 257.221,51.953 257.422 C 51.953 257.623,52.217 257.687,52.539 257.563 C 52.861 257.439,53.125 257.515,53.125 257.732 C 53.125 258.319,56.513 258.924,59.180 258.813 C 60.469 258.759,61.743 258.885,62.012 259.093 C 62.334 259.342,62.500 259.328,62.500 259.051 C 62.500 258.789,62.977 258.720,63.770 258.868 C 65.557 259.202,73.857 259.247,74.837 258.928 C 75.285 258.782,75.885 258.807,76.172 258.984 C 76.458 259.161,77.113 259.146,77.626 258.951 C 78.140 258.756,78.480 258.727,78.381 258.888 C 78.283 259.048,79.591 259.237,81.289 259.307 C 83.406 259.395,84.375 259.296,84.375 258.991 C 84.375 258.728,84.574 258.676,84.863 258.864 C 85.479 259.262,97.252 259.284,97.008 258.887 C 96.910 258.726,97.103 258.594,97.438 258.594 C 97.773 258.594,98.047 258.770,98.047 258.984 C 98.047 259.212,99.357 259.375,101.195 259.375 C 102.992 259.375,104.248 259.222,104.123 259.019 C 104.002 258.823,104.211 258.721,104.588 258.793 C 104.965 258.866,105.273 258.957,105.273 258.997 C 105.273 259.365,112.349 259.231,112.586 258.859 C 112.774 258.564,112.881 258.550,112.885 258.822 C 112.889 259.098,114.443 259.256,117.383 259.278 C 120.072 259.298,121.875 259.158,121.875 258.930 C 121.875 258.720,122.093 258.682,122.359 258.846 C 123.028 259.260,126.532 259.350,126.773 258.960 C 126.881 258.785,127.361 258.739,127.840 258.857 C 130.192 259.438,140.394 258.893,140.845 258.163 C 140.969 257.963,141.221 257.894,141.407 258.008 C 141.984 258.365,147.032 256.267,147.788 255.357 C 148.182 254.881,148.387 254.756,148.242 255.078 C 148.097 255.400,148.361 255.225,148.828 254.688 C 149.295 254.150,149.541 253.975,149.374 254.297 C 149.207 254.619,149.851 254.235,150.805 253.444 C 151.759 252.653,152.491 251.805,152.432 251.560 C 152.373 251.314,152.481 251.211,152.672 251.329 C 152.864 251.447,153.335 251.197,153.719 250.772 C 154.104 250.347,154.283 250.000,154.119 250.000 C 153.954 250.000,154.235 249.654,154.742 249.232 C 155.249 248.809,155.499 248.458,155.296 248.450 C 155.094 248.443,155.270 248.161,155.687 247.823 C 156.104 247.484,156.182 247.334,155.859 247.489 C 155.537 247.644,155.673 247.383,156.161 246.909 C 156.649 246.435,156.946 245.882,156.822 245.680 C 156.697 245.478,156.791 245.313,157.031 245.313 C 157.271 245.313,157.359 245.137,157.227 244.922 C 157.094 244.707,157.190 244.531,157.441 244.531 C 157.692 244.531,157.792 244.259,157.663 243.925 C 157.518 243.545,157.591 243.418,157.859 243.583 C 158.148 243.762,158.196 243.563,158.008 242.969 C 157.799 242.310,157.854 242.167,158.228 242.398 C 158.580 242.616,158.655 242.520,158.482 242.069 C 158.347 241.718,158.405 241.327,158.611 241.200 C 158.816 241.073,158.984 240.794,158.984 240.579 C 158.984 240.364,158.791 240.308,158.555 240.454 C 158.279 240.624,158.298 240.397,158.607 239.819 C 159.178 238.752,159.413 156.250,158.845 156.250 C 158.661 156.250,158.605 156.002,158.721 155.700 C 159.147 154.589,156.973 148.438,156.155 148.438 C 155.967 148.438,155.922 148.262,156.055 148.047 C 156.187 147.832,156.110 147.656,155.882 147.656 C 155.655 147.656,155.513 147.493,155.566 147.293 C 155.620 147.094,155.313 146.641,154.883 146.288 C 154.453 145.934,154.365 145.761,154.688 145.903 C 155.010 146.045,154.834 145.799,154.297 145.355 C 153.760 144.912,153.485 144.545,153.686 144.540 C 153.888 144.535,153.553 144.010,152.943 143.373 C 152.333 142.736,151.704 142.295,151.545 142.393 C 151.387 142.491,150.993 142.168,150.670 141.674 C 150.065 140.751,145.317 137.987,145.307 138.551 C 145.303 138.725,145.150 138.630,144.967 138.341 C 143.630 136.231,142.396 136.170,99.609 136.100 C 77.803 136.065,59.434 136.102,58.789 136.184 M125.113 149.264 C 125.497 149.669,125.999 150.000,126.229 150.000 C 126.458 150.000,126.992 150.441,127.416 150.980 C 127.841 151.519,128.376 151.844,128.607 151.701 C 128.857 151.547,128.913 151.625,128.747 151.896 C 128.590 152.149,128.734 152.452,129.075 152.583 C 129.409 152.711,129.586 152.974,129.467 153.166 C 129.348 153.358,129.447 153.516,129.688 153.516 C 129.928 153.516,130.016 153.691,129.883 153.906 C 129.750 154.121,129.839 154.297,130.081 154.297 C 130.352 154.297,130.420 154.616,130.258 155.127 C 130.113 155.584,130.148 155.862,130.336 155.746 C 130.523 155.630,130.677 156.560,130.677 157.813 C 130.677 159.065,130.544 160.008,130.382 159.907 C 130.220 159.807,130.186 159.982,130.306 160.296 C 130.576 161.000,129.460 163.243,128.693 163.538 C 128.383 163.656,128.244 163.938,128.383 164.164 C 128.527 164.397,128.450 164.459,128.205 164.307 C 127.968 164.161,127.584 164.395,127.352 164.829 C 127.120 165.262,126.803 165.583,126.648 165.541 C 126.494 165.499,125.752 165.661,125.000 165.900 C 123.050 166.521,119.531 166.835,119.531 166.388 C 119.531 166.183,119.399 166.053,119.238 166.099 C 119.077 166.144,118.550 165.962,118.066 165.694 C 117.583 165.426,117.188 165.335,117.188 165.491 C 117.188 165.647,116.938 165.433,116.633 165.016 C 116.328 164.599,115.845 164.258,115.559 164.258 C 115.273 164.258,115.031 164.082,115.020 163.867 C 115.010 163.652,114.620 162.867,114.153 162.122 C 113.686 161.377,113.203 159.971,113.081 158.997 C 112.958 158.023,112.802 156.831,112.733 156.348 C 112.664 155.864,112.772 155.469,112.971 155.469 C 113.171 155.469,113.222 155.117,113.086 154.688 C 112.938 154.222,113.016 153.906,113.278 153.906 C 113.520 153.906,113.609 153.730,113.477 153.516 C 113.344 153.301,113.410 153.125,113.623 153.125 C 113.837 153.125,114.507 152.436,115.111 151.593 C 115.807 150.624,116.744 149.886,117.663 149.582 C 118.461 149.318,119.030 148.965,118.926 148.797 C 118.823 148.630,119.751 148.571,120.990 148.667 C 122.680 148.798,123.047 148.742,122.461 148.445 C 121.846 148.133,121.970 148.100,123.047 148.289 C 123.799 148.421,124.729 148.860,125.113 149.264 M91.797 162.178 C 91.797 162.344,92.352 162.370,93.029 162.234 C 93.983 162.043,94.191 162.102,93.948 162.496 C 93.708 162.884,93.873 162.944,94.644 162.751 C 95.221 162.606,95.767 162.678,95.915 162.917 C 96.076 163.178,96.766 163.236,97.746 163.071 C 98.842 162.886,99.238 162.935,99.053 163.233 C 98.872 163.526,99.182 163.582,100.041 163.410 C 100.879 163.242,101.209 163.296,101.037 163.574 C 100.866 163.851,101.329 163.926,102.441 163.799 C 103.719 163.653,103.966 163.710,103.516 164.043 C 103.055 164.384,103.160 164.423,104.004 164.227 C 104.713 164.063,105.078 164.136,105.078 164.442 C 105.078 164.758,105.466 164.821,106.299 164.638 C 107.225 164.434,107.447 164.488,107.217 164.859 C 106.991 165.225,107.176 165.283,107.950 165.089 C 108.571 164.933,108.984 164.991,108.984 165.234 C 108.984 165.472,109.389 165.538,109.961 165.395 C 110.550 165.247,110.938 165.317,110.938 165.570 C 110.938 165.802,111.229 165.879,111.588 165.742 C 112.025 165.574,112.145 165.642,111.955 165.949 C 111.725 166.321,112.237 166.621,112.598 166.326 C 112.651 166.283,113.097 166.590,113.587 167.010 C 114.077 167.430,114.598 167.773,114.743 167.773 C 114.889 167.773,115.694 168.518,116.533 169.429 C 117.373 170.339,118.242 170.971,118.465 170.833 C 118.694 170.692,118.754 170.771,118.604 171.014 C 118.457 171.251,118.669 171.623,119.074 171.840 C 119.480 172.056,120.118 172.702,120.493 173.274 C 120.948 173.969,120.999 174.220,120.646 174.029 C 120.355 173.871,120.565 174.157,121.112 174.664 C 121.659 175.171,121.835 175.435,121.503 175.250 C 121.170 175.065,121.514 175.483,122.266 176.180 C 123.018 176.877,123.369 177.323,123.047 177.171 C 122.725 177.019,122.812 177.179,123.242 177.527 C 123.672 177.874,124.023 178.333,124.023 178.547 C 124.023 178.760,124.287 179.101,124.609 179.305 C 124.932 179.509,125.020 179.683,124.805 179.692 C 124.590 179.701,124.948 180.187,125.601 180.772 C 126.254 181.357,126.518 181.660,126.187 181.445 C 125.664 181.105,125.655 181.143,126.122 181.738 C 126.417 182.114,127.120 182.410,127.685 182.394 C 128.609 182.370,128.633 182.334,127.930 182.031 C 127.156 181.699,127.156 181.695,127.949 181.668 C 128.390 181.653,128.987 181.421,129.276 181.152 C 129.703 180.756,129.741 180.771,129.479 181.229 C 129.299 181.545,129.705 181.403,130.398 180.910 C 131.523 180.109,132.194 179.299,131.250 179.883 C 130.348 180.440,130.957 179.763,132.129 178.905 C 133.154 178.155,133.288 178.122,132.824 178.734 C 132.201 179.557,133.938 178.186,135.352 176.739 C 135.781 176.300,136.045 176.131,135.938 176.364 C 135.830 176.597,136.240 176.254,136.849 175.601 C 137.458 174.948,137.838 174.678,137.694 175.000 C 137.550 175.322,137.814 175.146,138.281 174.609 C 138.748 174.072,139.012 173.896,138.867 174.219 C 138.722 174.541,138.947 174.384,139.366 173.870 C 139.784 173.355,140.298 173.040,140.507 173.169 C 140.716 173.299,141.488 173.455,142.221 173.516 C 144.835 173.735,146.406 176.750,144.922 178.699 C 143.760 180.224,141.727 182.034,141.402 181.833 C 141.219 181.720,140.942 181.834,140.787 182.085 C 140.610 182.371,140.674 182.438,140.955 182.264 C 141.974 181.634,141.305 182.405,139.941 183.433 C 138.901 184.217,138.631 184.315,139.010 183.772 C 139.303 183.352,138.952 183.633,138.229 184.397 C 136.510 186.213,135.263 187.168,135.706 186.328 C 135.876 186.006,135.427 186.373,134.707 187.143 C 133.040 188.927,131.733 189.926,132.194 189.063 C 132.367 188.740,132.036 189.004,131.460 189.648 C 130.884 190.293,130.540 190.573,130.696 190.272 C 130.852 189.970,130.131 190.307,129.094 191.021 C 126.643 192.707,124.788 192.837,123.438 191.415 C 122.900 190.849,122.725 190.748,123.047 191.189 C 123.627 191.984,123.624 191.985,122.769 191.262 C 122.295 190.861,121.942 190.421,121.987 190.286 C 122.135 189.833,119.854 187.133,119.397 187.219 C 119.148 187.266,118.979 187.114,119.021 186.882 C 119.129 186.283,115.863 182.811,115.199 182.818 C 114.749 182.823,114.756 182.894,115.234 183.203 C 115.737 183.528,115.723 183.590,115.137 183.637 C 113.682 183.753,113.480 183.840,113.578 184.306 C 113.634 184.571,113.414 184.889,113.090 185.014 C 112.765 185.138,112.504 185.441,112.509 185.686 C 112.514 185.932,111.494 187.100,110.244 188.281 C 108.993 189.463,108.429 190.078,108.992 189.648 C 109.554 189.219,109.123 189.737,108.034 190.799 C 106.946 191.862,106.398 192.477,106.818 192.166 C 107.575 191.606,107.575 191.610,106.818 192.664 C 106.398 193.248,105.856 193.731,105.614 193.738 C 105.372 193.744,104.933 194.058,104.638 194.434 C 104.170 195.029,104.179 195.067,104.706 194.727 C 105.038 194.512,104.872 194.721,104.337 195.192 L 103.364 196.049 104.928 197.536 C 105.788 198.354,105.954 198.584,105.296 198.048 C 104.153 197.114,104.159 197.135,105.442 198.530 C 106.179 199.332,106.853 199.918,106.938 199.833 C 107.130 199.641,109.766 202.521,109.766 202.921 C 109.766 203.079,110.207 203.555,110.746 203.979 C 111.285 204.403,111.634 204.900,111.521 205.082 C 111.408 205.265,111.521 205.542,111.773 205.697 C 112.058 205.874,112.125 205.811,111.951 205.529 C 111.417 204.664,111.962 205.090,113.495 206.736 C 114.665 207.992,114.751 208.158,113.849 207.419 C 113.179 206.872,113.347 207.129,114.231 208.008 C 115.096 208.867,115.723 209.570,115.624 209.570 C 115.525 209.570,115.748 210.005,116.120 210.536 C 116.492 211.067,116.803 211.331,116.811 211.122 C 116.818 210.913,117.067 211.179,117.362 211.714 C 117.658 212.248,117.817 212.820,117.716 212.983 C 117.615 213.147,117.673 213.501,117.845 213.770 C 118.292 214.465,118.274 216.009,117.822 215.730 C 117.602 215.594,117.554 215.780,117.707 216.179 C 117.853 216.559,117.709 217.231,117.383 217.697 C 117.061 218.157,116.797 218.379,116.797 218.190 C 116.797 218.002,116.449 218.162,116.025 218.546 C 115.600 218.931,115.365 219.441,115.502 219.681 C 115.638 219.921,115.608 219.988,115.433 219.830 C 115.259 219.672,114.918 219.814,114.676 220.145 C 114.295 220.666,113.586 220.950,112.379 221.064 C 112.205 221.080,112.172 221.270,112.305 221.484 C 112.517 221.828,112.272 221.937,111.488 221.849 C 111.361 221.835,111.036 222.125,110.766 222.495 C 110.460 222.913,110.082 223.047,109.765 222.851 C 109.462 222.664,109.350 222.690,109.489 222.915 C 109.618 223.123,109.179 223.615,108.515 224.008 C 107.850 224.401,107.441 224.503,107.607 224.236 C 107.841 223.856,107.726 223.847,107.078 224.194 C 106.623 224.437,106.250 224.817,106.250 225.037 C 106.250 225.257,106.074 225.328,105.859 225.195 C 105.645 225.063,105.469 225.134,105.469 225.354 C 105.469 225.574,105.096 225.953,104.640 226.197 C 103.973 226.554,103.865 226.538,104.083 226.113 C 104.233 225.823,104.122 225.863,103.838 226.201 C 103.129 227.044,100.929 228.447,101.326 227.803 C 101.590 227.375,101.503 227.374,100.822 227.800 C 100.370 228.082,100.000 228.457,100.000 228.633 C 100.000 228.808,99.824 228.844,99.609 228.711 C 99.395 228.578,99.219 228.685,99.219 228.948 C 99.219 229.212,99.104 229.313,98.964 229.173 C 98.825 229.033,98.460 229.223,98.154 229.596 C 97.783 230.048,97.683 230.078,97.852 229.688 C 98.021 229.297,97.920 229.327,97.549 229.779 C 97.243 230.152,96.869 230.333,96.718 230.182 C 96.567 230.030,96.570 230.238,96.725 230.642 C 96.934 231.185,96.876 231.297,96.504 231.067 C 96.103 230.819,96.040 231.444,96.193 234.146 C 96.351 236.918,96.270 237.660,95.751 238.220 C 95.403 238.596,95.205 238.712,95.313 238.477 C 95.420 238.241,95.244 238.329,94.922 238.671 C 94.030 239.617,89.453 238.085,89.453 236.840 C 89.453 236.721,89.754 236.864,90.121 237.159 C 90.489 237.454,90.181 236.904,89.438 235.938 C 88.694 234.971,87.923 234.062,87.723 233.918 C 86.897 233.323,86.467 228.708,87.158 227.857 C 87.617 227.290,87.615 227.242,87.140 227.528 C 86.802 227.732,86.878 227.461,87.336 226.833 C 87.748 226.266,88.300 225.878,88.562 225.970 C 88.823 226.062,89.158 225.942,89.306 225.704 C 89.481 225.420,89.385 225.378,89.025 225.583 C 88.609 225.820,88.582 225.781,88.914 225.421 C 89.154 225.160,89.638 224.904,89.988 224.852 C 90.338 224.801,90.902 224.418,91.240 224.001 C 91.578 223.583,91.739 223.506,91.597 223.828 C 91.455 224.150,91.721 223.975,92.188 223.438 C 92.654 222.900,92.920 222.725,92.778 223.047 C 92.608 223.434,92.709 223.403,93.076 222.955 C 93.382 222.583,93.725 222.371,93.839 222.485 C 93.952 222.598,94.594 222.143,95.265 221.472 C 95.936 220.801,96.484 220.373,96.484 220.521 C 96.484 220.669,96.849 220.375,97.295 219.867 C 97.741 219.360,97.990 219.209,97.847 219.531 C 97.705 219.854,97.971 219.678,98.438 219.141 C 98.904 218.604,99.168 218.428,99.023 218.750 C 98.879 219.072,99.142 218.896,99.609 218.359 C 100.076 217.822,100.319 217.645,100.148 217.966 C 99.977 218.286,100.507 217.879,101.325 217.060 C 102.144 216.242,103.041 215.659,103.318 215.766 C 103.596 215.872,104.237 215.508,104.744 214.957 C 105.381 214.264,105.513 213.901,105.173 213.780 C 104.903 213.684,104.777 213.453,104.891 213.267 C 105.006 213.082,104.744 212.739,104.308 212.506 C 103.872 212.273,103.516 212.197,103.516 212.337 C 103.516 212.477,102.793 211.870,101.910 210.987 C 101.028 210.104,100.149 209.478,99.957 209.597 C 99.766 209.715,99.609 209.655,99.609 209.464 C 99.609 209.273,98.788 208.527,97.783 207.805 C 96.779 207.084,96.088 206.747,96.249 207.055 C 96.409 207.364,96.133 207.176,95.634 206.638 C 94.260 205.155,92.779 203.995,93.142 204.688 C 93.311 205.010,92.770 204.560,91.940 203.688 C 91.109 202.816,90.693 202.473,91.016 202.926 C 91.338 203.378,91.162 203.275,90.625 202.696 C 88.606 200.519,87.733 199.397,87.644 198.867 C 87.593 198.566,87.359 198.201,87.122 198.055 C 86.886 197.909,86.805 197.496,86.943 197.137 C 87.080 196.778,87.034 196.484,86.840 196.484 C 86.420 196.484,86.406 194.918,86.820 194.274 C 86.981 194.024,86.994 193.512,86.849 193.135 C 86.671 192.671,86.732 192.540,87.039 192.730 C 87.334 192.912,87.410 192.799,87.258 192.403 C 87.123 192.051,87.234 191.797,87.523 191.797 C 87.797 191.797,87.906 191.682,87.766 191.543 C 87.627 191.403,87.817 191.038,88.190 190.732 C 88.642 190.361,88.672 190.261,88.281 190.430 C 87.959 190.569,88.037 190.406,88.454 190.068 C 88.871 189.730,89.057 189.453,88.867 189.453 C 88.678 189.453,88.822 189.233,89.188 188.965 C 89.554 188.696,89.937 188.037,90.039 187.500 C 90.141 186.963,90.525 186.304,90.890 186.035 C 91.256 185.767,91.400 185.547,91.211 185.547 C 91.021 185.547,91.208 185.289,91.625 184.973 C 92.042 184.658,92.217 184.394,92.015 184.387 C 91.813 184.381,91.989 184.098,92.406 183.760 C 92.823 183.422,92.900 183.259,92.578 183.398 C 92.212 183.557,92.254 183.438,92.690 183.081 C 93.073 182.767,93.467 182.095,93.564 181.587 C 93.661 181.080,94.051 180.432,94.429 180.148 C 94.808 179.864,95.073 179.469,95.020 179.269 C 94.966 179.070,95.108 178.906,95.336 178.906 C 95.563 178.906,95.652 178.749,95.533 178.557 C 95.414 178.364,95.591 178.102,95.925 177.973 C 96.260 177.845,96.424 177.563,96.291 177.347 C 96.157 177.130,96.244 176.953,96.484 176.953 C 96.725 176.953,96.813 176.778,96.681 176.564 C 96.549 176.350,96.863 175.779,97.380 175.295 C 97.896 174.810,98.545 173.975,98.822 173.438 C 99.098 172.900,99.186 172.590,99.017 172.748 C 98.848 172.906,98.514 172.766,98.274 172.439 C 98.034 172.111,97.226 171.801,96.478 171.752 C 95.729 171.702,94.896 171.522,94.625 171.352 C 94.355 171.182,93.784 171.154,93.356 171.290 C 92.880 171.441,92.578 171.359,92.578 171.078 C 92.578 170.779,92.226 170.707,91.569 170.872 C 91.007 171.013,90.655 170.970,90.776 170.775 C 90.895 170.583,90.555 170.509,90.021 170.611 C 89.488 170.713,88.939 170.978,88.801 171.201 C 88.648 171.449,88.764 171.493,89.100 171.316 C 89.402 171.156,89.209 171.408,88.672 171.875 C 88.135 172.342,87.959 172.602,88.281 172.452 C 88.604 172.302,88.419 172.595,87.872 173.102 C 87.325 173.609,87.070 173.936,87.305 173.828 C 87.540 173.721,87.397 173.940,86.987 174.316 C 86.577 174.692,86.383 175.000,86.555 175.000 C 86.727 175.000,86.527 175.277,86.110 175.615 C 85.693 175.953,85.615 176.114,85.938 175.972 C 86.260 175.830,86.084 176.076,85.547 176.520 C 85.010 176.963,84.746 177.333,84.961 177.341 C 85.176 177.349,85.100 177.515,84.793 177.709 C 84.486 177.903,84.189 178.376,84.133 178.758 C 84.076 179.141,83.625 179.786,83.128 180.191 C 82.632 180.596,82.490 180.809,82.813 180.664 C 83.135 180.519,82.959 180.783,82.422 181.250 C 81.885 181.717,81.709 181.983,82.031 181.841 C 82.354 181.699,82.276 181.859,81.859 182.198 C 81.442 182.536,81.199 182.813,81.319 182.813 C 81.439 182.813,80.973 183.411,80.283 184.143 C 79.049 185.451,76.172 186.060,76.172 185.014 C 76.172 184.806,76.073 184.735,75.951 184.856 C 75.573 185.234,73.971 183.429,74.166 182.846 C 74.282 182.500,74.182 182.399,73.896 182.575 C 73.554 182.786,73.542 182.589,73.845 181.791 C 74.068 181.204,74.161 180.491,74.052 180.206 C 73.942 179.921,74.052 179.688,74.296 179.688 C 74.540 179.688,74.625 179.573,74.485 179.433 C 74.345 179.293,74.536 178.929,74.908 178.623 C 75.360 178.253,75.390 178.152,75.000 178.321 C 74.678 178.461,74.829 178.210,75.336 177.764 C 75.843 177.318,76.117 176.953,75.945 176.953 C 75.773 176.953,75.973 176.676,76.390 176.338 C 76.807 176.000,76.911 175.845,76.621 175.995 C 75.815 176.410,76.787 174.745,77.642 174.247 C 78.015 174.030,78.155 173.847,77.953 173.840 C 77.750 173.833,77.873 173.608,78.224 173.340 C 78.576 173.071,78.917 172.589,78.982 172.267 C 79.048 171.946,79.365 171.449,79.688 171.164 C 80.208 170.703,80.208 170.673,79.688 170.898 C 79.365 171.038,79.443 170.875,79.860 170.537 C 80.277 170.199,80.453 169.917,80.250 169.910 C 80.048 169.903,80.194 169.717,80.575 169.495 C 80.955 169.274,81.176 168.946,81.065 168.767 C 80.954 168.588,81.138 168.336,81.472 168.208 C 81.807 168.079,81.971 167.797,81.838 167.581 C 81.704 167.365,81.810 167.188,82.073 167.188 C 82.337 167.188,82.438 167.073,82.298 166.933 C 82.158 166.793,82.295 166.486,82.602 166.250 C 82.909 166.013,83.214 165.571,83.279 165.267 C 83.345 164.963,83.712 164.385,84.096 163.983 C 84.480 163.581,84.689 163.083,84.562 162.876 C 84.352 162.537,84.876 162.332,85.645 162.454 C 85.806 162.479,85.938 162.368,85.938 162.207 C 85.939 162.046,87.257 161.905,88.868 161.895 C 90.479 161.884,91.797 162.012,91.797 162.178 M73.242 170.313 C 73.109 170.527,73.264 170.703,73.587 170.703 C 74.596 170.703,75.346 173.177,74.496 173.703 C 74.256 173.851,74.211 173.731,74.383 173.400 C 74.591 172.998,74.529 173.008,74.150 173.438 C 73.596 174.066,65.210 174.324,64.617 173.732 C 63.903 173.018,64.253 171.061,65.134 170.840 C 65.616 170.719,65.913 170.463,65.795 170.271 C 65.673 170.075,67.310 169.922,69.531 169.922 C 72.067 169.922,73.397 170.062,73.242 170.313 M67.394 179.706 C 67.533 179.931,68.011 180.063,68.455 179.999 C 69.451 179.856,69.840 181.700,69.105 183.074 C 68.565 184.084,51.924 184.495,51.318 183.514 C 51.141 183.228,51.236 183.194,51.600 183.413 C 52.036 183.676,52.056 183.628,51.698 183.180 C 51.039 182.356,50.875 180.288,51.465 180.227 C 51.733 180.199,52.261 180.151,52.637 180.121 C 53.223 180.074,53.237 180.012,52.734 179.688 C 52.345 179.436,54.661 179.307,59.645 179.303 C 64.456 179.299,67.232 179.444,67.394 179.706 M75.781 188.660 C 75.343 188.952,75.601 189.052,76.808 189.057 C 77.752 189.060,78.620 189.303,78.902 189.643 C 79.440 190.292,79.129 192.188,78.485 192.188 C 78.262 192.188,78.161 192.319,78.260 192.480 C 78.648 193.107,60.008 192.817,59.366 192.188 C 58.735 191.569,58.794 189.453,59.442 189.453 C 59.646 189.453,59.712 189.292,59.591 189.096 C 59.210 188.480,60.136 188.400,68.359 188.333 C 73.812 188.289,76.180 188.393,75.781 188.660 M68.066 193.244 C 67.583 193.338,66.792 193.338,66.309 193.244 C 65.825 193.151,66.221 193.075,67.188 193.075 C 68.154 193.075,68.550 193.151,68.066 193.244 M138.007 195.820 C 138.480 196.314,138.620 196.402,138.318 196.015 C 137.309 194.723,138.100 195.293,139.860 197.127 C 140.818 198.125,141.338 198.801,141.016 198.630 C 140.693 198.458,141.538 199.336,142.893 200.579 C 144.248 201.823,145.269 203.065,145.163 203.342 C 145.057 203.618,145.794 204.617,146.801 205.561 C 148.841 207.472,149.145 208.816,147.815 210.029 C 147.385 210.421,147.305 210.592,147.638 210.408 C 147.970 210.224,146.221 212.059,143.750 214.485 C 141.279 216.911,139.697 218.560,140.234 218.150 C 140.771 217.740,140.431 218.231,139.477 219.241 C 138.524 220.251,137.666 220.999,137.571 220.904 C 137.475 220.809,137.069 220.906,136.667 221.121 C 136.161 221.392,135.938 221.381,135.938 221.084 C 135.938 220.849,135.762 220.766,135.547 220.898 C 135.299 221.052,135.156 220.005,135.156 218.034 C 135.156 215.490,135.038 214.882,134.503 214.677 C 133.528 214.303,125.808 213.578,125.216 213.805 C 124.887 213.931,124.267 213.105,123.481 211.493 C 122.808 210.113,122.084 208.984,121.871 208.984 C 121.658 208.984,121.505 208.853,121.531 208.691 C 121.653 207.914,121.386 207.416,120.215 206.238 C 119.517 205.536,119.195 205.105,119.501 205.280 C 119.910 205.514,119.884 205.352,119.403 204.665 C 117.687 202.215,117.927 202.136,126.617 202.269 C 130.944 202.336,134.627 202.248,134.802 202.074 C 134.976 201.900,134.292 201.777,133.282 201.799 C 131.972 201.829,131.836 201.793,132.808 201.673 C 134.905 201.413,135.236 200.939,135.090 198.400 C 135.019 197.171,135.074 196.237,135.213 196.323 C 135.352 196.409,135.569 196.208,135.697 195.876 C 135.847 195.486,135.771 195.370,135.482 195.548 C 135.207 195.718,135.143 195.651,135.314 195.373 C 135.768 194.638,137.084 194.857,138.007 195.820 M73.633 198.447 C 72.267 198.702,72.349 198.725,74.286 198.628 C 76.815 198.501,78.532 199.649,77.915 201.054 C 77.745 201.441,77.590 201.934,77.570 202.148 C 77.548 202.378,76.586 202.481,75.241 202.399 C 73.634 202.302,73.029 202.389,73.216 202.692 C 73.370 202.941,73.214 203.125,72.852 203.125 C 72.504 203.125,72.301 202.993,72.401 202.832 C 72.501 202.671,71.193 202.570,69.494 202.607 C 67.686 202.647,66.406 202.516,66.406 202.291 C 66.406 202.080,66.260 201.998,66.081 202.108 C 65.902 202.219,65.726 202.053,65.690 201.741 C 65.535 200.386,65.533 200.165,65.673 199.609 C 65.899 198.710,66.457 198.467,67.718 198.719 C 68.366 198.849,68.778 198.795,68.658 198.596 C 68.538 198.397,69.918 198.223,71.820 198.199 C 74.343 198.166,74.801 198.229,73.633 198.447 M85.547 203.102 C 85.547 203.290,86.462 204.206,87.580 205.139 C 88.698 206.072,89.468 206.599,89.290 206.309 C 89.030 205.882,89.125 205.865,89.788 206.220 C 90.238 206.461,90.796 207.011,91.026 207.442 C 91.257 207.873,91.597 208.131,91.782 208.017 C 92.411 207.629,91.918 209.672,91.042 211.090 C 90.563 211.865,90.306 212.500,90.472 212.500 C 90.638 212.500,90.433 212.777,90.016 213.115 C 89.599 213.453,89.521 213.595,89.844 213.431 C 90.580 213.055,89.764 214.224,88.493 215.366 C 88.054 215.761,87.959 215.965,88.281 215.820 C 88.604 215.676,88.428 215.939,87.891 216.406 C 87.354 216.873,87.159 217.126,87.459 216.968 C 87.843 216.766,87.794 217.036,87.289 217.890 C 86.897 218.554,86.434 219.011,86.261 218.904 C 86.088 218.797,86.046 218.969,86.168 219.286 C 86.299 219.629,86.056 220.040,85.566 220.302 C 85.114 220.544,84.844 220.904,84.966 221.102 C 85.088 221.299,84.610 222.046,83.903 222.760 C 83.105 223.566,82.914 223.675,83.398 223.046 C 83.828 222.488,83.147 223.095,81.885 224.395 C 80.622 225.694,79.744 226.486,79.932 226.154 C 80.120 225.822,79.773 226.130,79.162 226.838 C 78.550 227.545,77.914 228.041,77.749 227.939 C 77.583 227.836,77.117 228.141,76.712 228.616 C 75.986 229.468,75.986 229.472,76.758 228.900 C 77.478 228.366,77.498 228.373,77.013 228.991 C 76.724 229.361,76.373 229.626,76.232 229.581 C 76.092 229.537,74.910 230.553,73.605 231.840 C 70.937 234.473,62.779 242.285,61.222 243.699 C 60.162 244.660,56.250 245.307,56.250 244.521 C 56.250 244.312,56.017 244.141,55.732 244.141 C 54.162 244.141,52.681 240.671,53.416 238.717 C 53.609 238.204,55.692 235.831,58.043 233.443 C 60.892 230.551,61.333 230.014,59.364 231.836 C 57.738 233.340,60.796 230.176,66.161 224.805 C 71.526 219.434,75.585 215.303,75.181 215.625 C 74.761 215.961,74.919 215.586,75.551 214.746 C 76.159 213.940,76.821 213.281,77.023 213.281 C 77.225 213.281,77.282 213.106,77.150 212.892 C 77.017 212.678,77.402 212.034,78.005 211.461 C 78.608 210.888,78.838 210.549,78.516 210.707 C 78.193 210.866,78.271 210.719,78.688 210.381 C 79.105 210.042,79.315 209.766,79.154 209.766 C 78.994 209.766,79.168 209.248,79.542 208.615 C 79.916 207.982,80.363 207.552,80.536 207.659 C 80.709 207.766,80.755 207.604,80.638 207.299 C 80.518 206.986,80.989 206.177,81.716 205.444 C 82.427 204.728,82.761 204.293,82.459 204.476 C 81.735 204.915,82.257 204.012,83.369 202.903 C 84.158 202.116,85.547 202.244,85.547 203.102 M147.070 205.078 C 147.909 205.938,148.508 206.641,148.401 206.641 C 148.293 206.641,147.519 205.938,146.680 205.078 C 145.841 204.219,145.242 203.516,145.349 203.516 C 145.457 203.516,146.231 204.219,147.070 205.078 M66.986 224.316 L 62.695 228.711 67.090 224.421 C 69.507 222.061,71.484 220.084,71.484 220.026 C 71.484 219.744,70.970 220.235,66.986 224.316 M66.587 237.988 L 64.648 240.039 66.699 238.101 C 67.827 237.034,68.750 236.112,68.750 236.050 C 68.750 235.758,68.388 236.083,66.587 237.988 " stroke="none" fill="#1b83c3" fill-rule="evenodd"></path><path id="path2" d="M77.251 135.823 C 77.737 135.917,78.440 135.913,78.813 135.815 C 79.187 135.717,78.789 135.641,77.930 135.645 C 77.070 135.650,76.765 135.730,77.251 135.823 M55.664 136.318 C 55.192 136.515,55.811 136.560,57.227 136.432 C 58.516 136.316,59.644 136.157,59.733 136.079 C 60.066 135.790,56.416 136.005,55.664 136.318 M139.648 136.531 C 142.584 137.193,143.250 137.185,141.211 136.512 C 140.352 136.229,139.121 135.999,138.477 136.000 C 137.745 136.002,138.186 136.201,139.648 136.531 M49.899 138.314 C 49.522 138.534,49.067 138.624,48.890 138.515 C 48.713 138.405,48.568 138.561,48.568 138.861 C 48.568 139.349,50.289 138.797,51.139 138.036 C 51.487 137.725,50.550 137.935,49.899 138.314 M144.922 137.976 C 145.029 138.091,145.908 138.566,146.875 139.032 C 147.842 139.498,148.328 139.634,147.955 139.334 C 147.583 139.035,147.375 138.693,147.493 138.575 C 147.611 138.456,147.494 138.227,147.231 138.065 C 146.905 137.863,146.855 137.933,147.074 138.287 C 147.307 138.665,147.218 138.734,146.744 138.543 C 145.213 137.927,144.738 137.779,144.922 137.976 M46.250 140.560 C 45.412 141.169,44.463 142.004,44.141 142.415 C 43.818 142.827,44.174 142.637,44.931 141.992 C 45.688 141.348,46.743 140.522,47.275 140.157 C 47.807 139.793,48.137 139.485,48.008 139.474 C 47.879 139.462,47.088 139.951,46.250 140.560 M150.000 140.838 C 150.000 140.884,150.835 141.576,151.855 142.375 C 153.579 143.726,153.614 143.737,152.344 142.534 C 151.592 141.821,151.011 141.129,151.053 140.997 C 151.094 140.864,150.875 140.755,150.564 140.755 C 150.254 140.755,150.000 140.793,150.000 140.838 M41.968 144.403 C 41.366 145.192,41.073 145.714,41.317 145.563 C 41.817 145.254,43.508 142.969,43.237 142.969 C 43.140 142.969,42.569 143.614,41.968 144.403 M156.904 149.379 C 157.859 151.326,158.582 151.677,158.582 150.195 C 158.582 149.980,158.438 150.031,158.263 150.307 C 158.041 150.657,157.725 150.324,157.224 149.214 C 156.829 148.337,156.355 147.526,156.172 147.413 C 155.989 147.300,156.318 148.184,156.904 149.379 M116.992 149.938 C 116.348 150.332,115.562 150.991,115.246 151.402 C 114.773 152.017,114.841 152.003,115.637 151.317 C 116.167 150.860,117.129 150.208,117.773 149.868 C 118.418 149.528,118.770 149.244,118.555 149.236 C 118.340 149.228,117.637 149.544,116.992 149.938 M126.936 151.052 C 127.863 151.846,128.946 153.208,129.341 154.080 C 129.737 154.951,130.065 155.436,130.070 155.156 C 130.091 153.886,126.579 149.609,125.515 149.609 C 125.369 149.609,126.009 150.259,126.936 151.052 M158.270 152.344 C 158.289 153.359,158.904 155.026,158.918 154.102 C 158.924 153.672,158.778 152.969,158.594 152.539 C 158.388 152.060,158.262 151.985,158.270 152.344 M113.839 153.308 C 113.492 153.838,113.268 154.430,113.342 154.623 C 113.416 154.817,113.762 154.383,114.111 153.659 C 114.857 152.111,114.731 151.948,113.839 153.308 M130.195 157.813 C 130.195 158.994,130.268 159.478,130.358 158.887 C 130.447 158.296,130.447 157.329,130.358 156.738 C 130.268 156.147,130.195 156.631,130.195 157.813 M159.563 197.852 C 159.563 220.410,159.610 229.581,159.668 218.232 C 159.725 206.882,159.725 188.425,159.668 177.216 C 159.610 166.007,159.563 175.293,159.563 197.852 M36.125 197.852 C 36.125 219.551,36.173 228.485,36.230 217.706 C 36.288 206.926,36.288 189.172,36.230 178.252 C 36.173 167.333,36.125 176.152,36.125 197.852 M113.684 161.425 C 113.664 161.895,116.459 164.847,117.349 165.295 C 117.797 165.521,117.503 165.146,116.696 164.462 C 115.888 163.778,115.330 163.052,115.455 162.850 C 115.580 162.647,115.507 162.529,115.291 162.588 C 115.075 162.647,114.628 162.344,114.298 161.914 C 113.967 161.484,113.691 161.264,113.684 161.425 M85.279 162.793 C 84.869 163.169,84.788 163.301,85.098 163.086 C 85.409 162.871,87.087 162.593,88.827 162.468 L 91.992 162.242 89.008 162.175 C 86.646 162.123,85.869 162.252,85.279 162.793 M127.860 163.169 C 128.145 163.629,127.266 164.477,125.586 165.365 C 124.941 165.706,124.555 165.991,124.726 166.000 C 126.009 166.064,128.884 163.555,128.090 163.064 C 127.808 162.890,127.714 162.933,127.860 163.169 M103.249 164.603 C 104.284 164.849,105.033 165.149,104.912 165.270 C 104.792 165.390,105.263 165.400,105.960 165.292 C 107.114 165.112,107.019 165.050,104.883 164.595 C 101.993 163.980,100.659 163.987,103.249 164.603 M112.109 166.567 C 112.109 166.682,112.634 167.048,113.276 167.380 C 113.918 167.712,115.104 168.543,115.913 169.228 L 117.383 170.473 116.300 169.288 C 115.278 168.170,112.109 166.112,112.109 166.567 M67.676 170.600 C 68.696 170.680,70.366 170.680,71.387 170.600 C 72.407 170.519,71.572 170.453,69.531 170.453 C 67.490 170.453,66.655 170.519,67.676 170.600 M91.797 170.703 C 92.334 170.875,93.125 171.016,93.555 171.016 C 94.173 171.016,94.133 170.951,93.359 170.703 C 92.822 170.531,92.031 170.390,91.602 170.390 C 90.983 170.390,91.024 170.455,91.797 170.703 M74.030 171.352 C 74.624 171.946,74.626 172.030,74.050 172.352 C 73.704 172.546,73.523 172.869,73.648 173.071 C 73.784 173.291,72.138 173.438,69.531 173.438 C 67.143 173.438,65.279 173.291,65.389 173.112 C 65.500 172.933,65.337 172.786,65.028 172.786 C 64.604 172.786,64.572 172.914,64.898 173.307 C 65.713 174.289,73.649 174.021,74.373 172.986 C 74.987 172.110,74.626 170.703,73.786 170.703 C 73.564 170.703,73.674 170.995,74.030 171.352 M117.399 171.067 C 117.276 171.267,117.353 171.541,117.572 171.676 C 117.790 171.811,117.969 171.801,117.969 171.655 C 117.969 171.509,118.276 171.627,118.652 171.918 C 119.209 172.349,119.198 172.285,118.592 171.575 C 117.747 170.585,117.708 170.568,117.399 171.067 M97.333 171.867 C 97.907 172.040,98.610 172.302,98.895 172.448 C 99.181 172.594,99.073 172.437,98.656 172.099 C 98.239 171.761,97.536 171.499,97.093 171.518 C 96.448 171.545,96.495 171.614,97.333 171.867 M141.665 173.801 C 143.455 174.094,144.449 174.750,144.941 175.963 C 145.190 176.577,145.269 176.610,145.288 176.109 C 145.331 174.979,143.081 173.432,141.474 173.486 L 140.039 173.535 141.665 173.801 M135.452 176.904 C 132.770 179.003,132.287 179.627,134.625 177.972 C 136.334 176.763,137.936 175.317,137.450 175.422 C 137.370 175.440,136.471 176.106,135.452 176.904 M122.257 176.941 C 122.712 177.579,123.283 178.225,123.527 178.375 C 123.770 178.526,123.478 178.004,122.876 177.215 C 121.570 175.503,121.078 175.285,122.257 176.941 M144.922 177.485 C 144.922 177.849,144.087 178.952,143.066 179.937 L 141.211 181.728 143.066 180.235 C 144.832 178.813,145.656 177.557,145.153 177.054 C 145.026 176.927,144.922 177.121,144.922 177.485 M74.669 179.199 C 74.472 179.575,74.205 180.498,74.074 181.250 C 73.824 182.695,74.008 182.377,74.809 179.980 C 75.329 178.427,75.264 178.064,74.669 179.199 M60.547 180.058 C 64.736 180.177,68.384 180.416,68.652 180.589 C 69.272 180.990,69.282 182.124,68.672 182.734 C 67.993 183.413,52.325 183.395,51.562 182.715 C 51.096 182.299,51.091 182.329,51.532 182.910 C 52.244 183.852,68.349 183.961,69.123 183.029 C 71.179 180.552,68.793 179.685,60.156 179.771 L 52.930 179.843 60.547 180.058 M51.513 180.739 C 51.218 181.103,51.181 181.277,51.431 181.127 C 51.682 180.977,51.960 180.987,52.051 181.150 C 52.142 181.312,52.167 181.237,52.106 180.982 C 52.046 180.728,52.207 180.434,52.463 180.330 C 52.780 180.201,52.788 180.130,52.489 180.109 C 52.247 180.092,51.808 180.376,51.513 180.739 M93.555 182.031 C 93.221 182.676,93.037 183.203,93.144 183.203 C 93.251 183.203,93.612 182.676,93.945 182.031 C 94.279 181.387,94.463 180.859,94.356 180.859 C 94.249 180.859,93.888 181.387,93.555 182.031 M114.281 183.020 C 113.864 183.336,113.697 183.594,113.910 183.594 C 114.123 183.594,114.507 183.384,114.763 183.128 C 115.124 182.767,115.516 182.869,116.501 183.580 L 117.773 184.499 116.826 183.460 C 115.750 182.280,115.351 182.211,114.281 183.020 M74.219 183.131 C 74.219 183.983,76.279 185.156,77.689 185.107 C 79.081 185.059,79.077 185.054,77.379 184.780 C 76.300 184.605,75.388 184.169,74.937 183.614 C 74.542 183.125,74.219 182.908,74.219 183.131 M136.133 185.389 C 134.629 186.573,133.135 187.822,132.813 188.164 C 132.490 188.506,133.691 187.666,135.480 186.298 C 138.315 184.130,139.420 183.160,138.988 183.220 C 138.922 183.229,137.637 184.205,136.133 185.389 M92.336 184.082 C 90.992 186.363,90.904 186.558,91.589 185.742 C 92.382 184.797,93.066 183.594,92.810 183.594 C 92.708 183.594,92.495 183.813,92.336 184.082 M111.889 185.645 L 110.742 186.914 112.012 185.767 C 112.710 185.136,113.281 184.564,113.281 184.497 C 113.281 184.195,112.959 184.461,111.889 185.645 M118.945 186.328 C 119.784 187.188,120.559 187.891,120.666 187.891 C 120.774 187.891,120.175 187.188,119.336 186.328 C 118.497 185.469,117.722 184.766,117.615 184.766 C 117.507 184.766,118.106 185.469,118.945 186.328 M109.386 188.465 C 108.888 188.995,108.303 189.319,108.086 189.185 C 107.853 189.041,107.814 189.139,107.990 189.425 C 108.241 189.830,110.547 188.204,110.547 187.622 C 110.547 187.334,110.237 187.559,109.386 188.465 M120.703 188.403 C 120.703 188.471,121.274 189.042,121.973 189.673 L 123.242 190.820 122.095 189.551 C 121.025 188.367,120.703 188.102,120.703 188.403 M59.863 189.149 C 58.863 189.631,58.710 190.104,59.553 190.104 C 59.866 190.104,60.031 189.958,59.921 189.779 C 59.622 189.295,59.379 189.317,67.773 189.067 L 75.586 188.835 68.164 188.780 C 63.514 188.745,60.414 188.883,59.863 189.149 M78.223 189.484 C 78.599 189.703,78.927 190.269,78.952 190.742 C 78.988 191.431,79.033 191.462,79.179 190.899 C 79.379 190.128,78.674 189.056,77.980 189.074 C 77.737 189.081,77.847 189.265,78.223 189.484 M58.996 191.261 C 58.964 192.455,60.111 192.592,69.189 192.480 L 78.320 192.368 69.062 192.278 C 60.714 192.196,59.765 192.120,59.406 191.504 C 59.187 191.128,59.003 191.019,58.996 191.261 M123.828 191.500 C 124.150 191.850,124.941 192.237,125.586 192.359 L 126.758 192.583 125.586 192.137 C 124.941 191.892,124.150 191.505,123.828 191.278 C 123.307 190.909,123.307 190.934,123.828 191.500 M86.809 195.313 C 86.809 196.064,86.890 196.372,86.988 195.996 C 87.086 195.620,87.086 195.005,86.988 194.629 C 86.890 194.253,86.809 194.561,86.809 195.313 M135.765 195.667 C 135.644 195.862,135.912 195.925,136.359 195.808 C 136.972 195.648,137.768 196.163,139.583 197.895 L 141.992 200.195 139.661 197.754 C 137.479 195.470,136.283 194.829,135.765 195.667 M135.284 199.023 C 135.286 200.527,135.357 201.095,135.441 200.284 C 135.526 199.474,135.524 198.243,135.438 197.550 C 135.352 196.856,135.283 197.520,135.284 199.023 M87.126 197.266 C 87.111 197.920,88.521 200.391,88.909 200.391 C 89.046 200.391,88.966 200.159,88.731 199.875 C 88.495 199.592,88.041 198.757,87.721 198.020 C 87.402 197.283,87.134 196.943,87.126 197.266 M104.636 198.180 C 104.876 198.469,104.941 198.835,104.782 198.994 C 104.622 199.154,104.756 199.225,105.078 199.154 C 105.433 199.075,105.613 199.254,105.534 199.609 C 105.462 199.932,105.536 200.063,105.697 199.901 C 105.859 199.740,106.357 199.911,106.804 200.282 C 107.251 200.653,106.922 200.214,106.073 199.306 C 104.632 197.767,103.661 197.006,104.636 198.180 M65.848 199.689 C 65.334 200.423,65.323 200.668,65.775 201.349 C 66.522 202.476,76.218 202.777,77.398 201.709 C 78.180 201.001,78.343 200.181,77.771 199.827 C 77.576 199.707,77.500 199.928,77.603 200.320 C 77.968 201.718,76.916 201.982,71.430 201.867 L 66.211 201.758 66.087 200.681 C 65.992 199.855,66.175 199.519,66.868 199.241 C 67.508 198.984,67.580 198.870,67.112 198.853 C 66.748 198.839,66.179 199.215,65.848 199.689 M143.164 201.953 C 144.003 202.813,144.778 203.516,144.885 203.516 C 144.993 203.516,144.394 202.813,143.555 201.953 C 142.716 201.094,141.941 200.391,141.834 200.391 C 141.726 200.391,142.325 201.094,143.164 201.953 M83.608 202.859 C 83.126 203.634,83.136 203.663,83.721 203.179 C 84.075 202.886,84.631 202.749,84.956 202.874 C 85.778 203.189,85.697 202.842,84.842 202.385 C 84.295 202.092,84.020 202.198,83.608 202.859 M90.625 202.075 C 90.625 202.143,91.196 202.714,91.895 203.345 L 93.164 204.492 92.017 203.223 C 90.947 202.039,90.625 201.774,90.625 202.075 M109.570 203.516 C 110.409 204.375,111.184 205.078,111.291 205.078 C 111.399 205.078,110.800 204.375,109.961 203.516 C 109.122 202.656,108.347 201.953,108.240 201.953 C 108.132 201.953,108.731 202.656,109.570 203.516 M122.559 202.619 C 123.042 202.713,123.833 202.713,124.316 202.619 C 124.800 202.526,124.404 202.450,123.438 202.450 C 122.471 202.450,122.075 202.526,122.559 202.619 M126.472 202.627 C 127.174 202.714,128.229 202.712,128.816 202.623 C 129.403 202.534,128.828 202.463,127.539 202.465 C 126.250 202.467,125.770 202.540,126.472 202.627 M130.962 202.624 C 131.556 202.714,132.435 202.711,132.916 202.619 C 133.396 202.526,132.910 202.453,131.836 202.455 C 130.762 202.458,130.369 202.534,130.962 202.624 M146.588 205.691 C 147.182 206.351,147.533 207.038,147.369 207.219 C 147.205 207.399,147.278 207.428,147.532 207.283 C 147.828 207.113,148.052 207.406,148.157 208.099 C 148.318 209.160,148.321 209.162,148.379 208.182 C 148.420 207.485,147.997 206.779,146.973 205.838 C 145.691 204.659,145.643 204.641,146.588 205.691 M94.922 205.611 C 94.922 205.718,95.449 206.182,96.094 206.641 C 96.738 207.100,97.266 207.387,97.266 207.280 C 97.266 207.172,96.738 206.709,96.094 206.250 C 95.449 205.791,94.922 205.503,94.922 205.611 M90.039 207.243 C 90.469 207.658,91.153 208.351,91.561 208.784 C 91.979 209.228,92.224 209.330,92.125 209.018 C 92.029 208.714,91.344 208.021,90.604 207.477 C 89.863 206.934,89.609 206.828,90.039 207.243 M113.672 208.008 C 114.401 208.760,115.085 209.375,115.192 209.375 C 115.300 209.375,114.791 208.760,114.063 208.008 C 113.334 207.256,112.649 206.641,112.542 206.641 C 112.435 206.641,112.943 207.256,113.672 208.008 M121.522 207.984 C 121.974 208.749,122.418 209.375,122.510 209.375 C 122.787 209.375,121.519 207.099,121.096 206.837 C 120.879 206.703,121.071 207.219,121.522 207.984 M146.463 210.840 L 145.117 212.305 146.582 210.959 C 147.945 209.706,148.226 209.375,147.928 209.375 C 147.863 209.375,147.204 210.034,146.463 210.840 M123.446 211.621 C 123.476 212.616,124.933 213.726,126.003 213.568 C 127.139 213.400,127.138 213.398,125.856 213.340 C 125.145 213.308,124.634 213.149,124.720 212.988 C 124.806 212.827,124.552 212.388,124.157 212.012 C 123.761 211.636,123.441 211.460,123.446 211.621 M117.224 213.510 C 117.812 215.759,118.000 216.017,117.791 214.292 C 117.690 213.451,117.430 212.587,117.215 212.372 C 116.958 212.115,116.961 212.505,117.224 213.510 M105.257 213.603 C 105.434 213.915,105.190 214.535,104.642 215.166 L 103.733 216.211 104.880 215.142 C 105.835 214.251,105.938 213.991,105.495 213.580 C 105.065 213.180,105.019 213.185,105.257 213.603 M131.738 213.958 L 135.156 214.092 135.156 217.154 C 135.156 222.219,136.276 222.332,140.379 217.679 L 143.051 214.648 140.140 217.655 C 136.257 221.666,135.625 221.584,135.464 217.048 L 135.352 213.867 131.836 213.845 L 128.320 213.823 131.738 213.958 M73.228 218.066 L 71.289 220.117 73.340 218.179 C 74.468 217.113,75.391 216.190,75.391 216.128 C 75.391 215.836,75.029 216.161,73.228 218.066 M96.973 220.351 C 96.060 220.998,95.313 221.617,95.313 221.728 C 95.313 221.838,95.839 221.554,96.482 221.096 C 97.130 220.634,97.870 220.389,98.142 220.546 C 98.412 220.701,98.503 220.685,98.343 220.509 C 98.184 220.333,98.249 219.953,98.489 219.665 C 99.121 218.903,98.833 219.034,96.973 220.351 M82.409 223.340 L 80.273 225.586 82.520 223.451 C 83.755 222.277,84.766 221.266,84.766 221.205 C 84.766 220.915,84.392 221.253,82.409 223.340 M109.087 222.252 C 109.138 222.444,108.828 222.887,108.398 223.236 L 107.617 223.871 108.398 223.472 C 110.056 222.625,110.268 222.392,109.608 222.139 C 109.270 222.009,109.036 222.060,109.087 222.252 M67.749 223.926 L 66.602 225.195 67.871 224.048 C 68.569 223.417,69.141 222.846,69.141 222.778 C 69.141 222.477,68.818 222.742,67.749 223.926 M78.686 226.660 L 77.539 227.930 78.809 226.782 C 79.992 225.713,80.258 225.391,79.956 225.391 C 79.889 225.391,79.317 225.962,78.686 226.660 M64.624 227.051 L 63.477 228.320 64.746 227.173 C 65.929 226.104,66.195 225.781,65.893 225.781 C 65.826 225.781,65.255 226.353,64.624 227.051 M102.637 226.395 C 101.176 227.188,101.265 227.518,102.734 226.758 C 103.379 226.425,103.906 226.068,103.906 225.967 C 103.906 225.715,103.864 225.729,102.637 226.395 M87.504 227.338 C 86.884 228.209,86.711 228.927,86.823 230.170 L 86.973 231.836 87.041 230.138 C 87.081 229.142,87.443 227.972,87.917 227.306 C 88.362 226.682,88.637 226.172,88.530 226.172 C 88.422 226.172,87.961 226.697,87.504 227.338 M271.984 226.975 C 272.051 227.863,272.481 227.974,272.785 227.181 C 272.902 226.876,272.757 226.535,272.462 226.422 C 272.113 226.288,271.947 226.480,271.984 226.975 M99.902 227.958 C 98.442 228.750,98.531 229.080,100.000 228.320 C 100.645 227.987,101.172 227.631,101.172 227.529 C 101.172 227.278,101.130 227.292,99.902 227.958 M75.177 229.785 L 73.633 231.445 75.293 229.901 C 76.837 228.465,77.133 228.125,76.837 228.125 C 76.773 228.125,76.026 228.872,75.177 229.785 M95.947 230.679 C 95.813 231.028,95.703 232.542,95.703 234.042 C 95.703 237.051,95.302 238.152,94.017 238.669 C 93.445 238.900,93.369 239.021,93.787 239.038 C 95.206 239.094,95.890 237.566,96.111 233.847 C 96.339 230.011,96.323 229.699,95.947 230.679 M58.374 233.301 L 57.227 234.570 58.496 233.423 C 59.679 232.354,59.945 232.031,59.643 232.031 C 59.576 232.031,59.005 232.603,58.374 233.301 M70.313 234.180 C 69.364 235.146,68.675 235.938,68.783 235.938 C 68.890 235.938,69.754 235.146,70.703 234.180 C 71.652 233.213,72.340 232.422,72.233 232.422 C 72.126 232.422,71.261 233.213,70.313 234.180 M89.054 235.535 C 89.508 236.173,90.080 236.818,90.323 236.969 C 90.567 237.120,90.275 236.598,89.673 235.809 C 88.367 234.097,87.875 233.879,89.054 235.535 M54.693 236.908 C 53.967 237.657,53.450 238.330,53.542 238.403 C 53.635 238.477,54.303 237.864,55.026 237.042 C 56.669 235.174,56.457 235.088,54.693 236.908 M63.319 240.685 C 61.299 242.636,59.980 244.048,60.389 243.823 C 61.129 243.416,67.533 237.096,67.178 237.124 C 67.076 237.132,65.339 238.734,63.319 240.685 M36.419 238.672 C 36.419 239.424,36.499 239.731,36.597 239.355 C 36.696 238.979,36.696 238.364,36.597 237.988 C 36.499 237.612,36.419 237.920,36.419 238.672 M53.216 240.234 C 53.216 240.986,53.296 241.294,53.394 240.918 C 53.493 240.542,53.493 239.927,53.394 239.551 C 53.296 239.175,53.216 239.482,53.216 240.234 M37.268 242.601 C 37.549 243.940,38.677 246.609,38.878 246.409 C 38.966 246.320,38.593 245.203,38.048 243.925 C 37.504 242.647,37.153 242.051,37.268 242.601 M53.516 242.144 C 53.516 242.515,55.424 244.335,55.577 244.110 C 55.638 244.019,55.199 243.473,54.602 242.896 C 54.004 242.319,53.516 241.981,53.516 242.144 M56.934 244.416 C 57.417 244.509,58.208 244.509,58.691 244.416 C 59.175 244.323,58.779 244.247,57.813 244.247 C 56.846 244.247,56.450 244.323,56.934 244.416 M156.912 245.903 C 156.555 246.653,156.343 247.266,156.442 247.266 C 156.709 247.266,157.895 244.874,157.716 244.695 C 157.631 244.610,157.270 245.154,156.912 245.903 M155.252 248.721 C 154.868 249.306,153.837 250.596,152.961 251.588 C 151.731 252.979,151.833 252.912,153.409 251.296 C 155.243 249.414,156.550 247.656,156.113 247.656 C 156.023 247.656,155.635 248.135,155.252 248.721 M42.684 251.782 C 43.494 252.655,44.053 253.473,43.927 253.599 C 43.801 253.725,43.873 253.936,44.088 254.069 C 45.309 254.823,44.616 253.390,43.050 251.920 C 41.237 250.219,41.232 250.217,42.684 251.782 M149.037 254.733 C 146.985 256.275,146.793 256.531,148.366 255.627 C 149.475 254.990,151.218 253.462,150.744 253.542 C 150.657 253.557,149.889 254.093,149.037 254.733 M48.633 256.413 C 49.063 256.738,49.634 257.193,49.902 257.424 C 50.171 257.655,50.391 257.756,50.391 257.650 C 50.391 257.544,51.116 257.712,52.002 258.025 C 52.889 258.338,53.811 258.581,54.053 258.565 C 54.295 258.550,53.604 258.221,52.519 257.834 C 51.434 257.448,49.940 256.837,49.199 256.477 C 48.177 255.980,48.040 255.964,48.633 256.413 M145.190 256.894 C 145.051 257.033,143.571 257.551,141.902 258.045 C 140.233 258.538,139.147 258.952,139.489 258.963 C 139.831 258.975,140.973 258.723,142.028 258.403 C 144.373 257.691,144.654 257.678,144.296 258.301 C 144.133 258.584,144.164 258.653,144.371 258.464 C 144.567 258.285,144.694 258.021,144.655 257.878 C 144.615 257.734,144.967 257.404,145.436 257.143 C 145.905 256.882,146.099 256.662,145.866 256.654 C 145.633 256.647,145.329 256.754,145.190 256.894 M57.725 259.271 C 58.644 259.353,60.050 259.352,60.850 259.268 C 61.650 259.184,60.898 259.117,59.180 259.118 C 57.461 259.120,56.806 259.188,57.725 259.271 M63.184 259.260 C 63.667 259.353,64.458 259.353,64.941 259.260 C 65.425 259.167,65.029 259.091,64.063 259.091 C 63.096 259.091,62.700 259.167,63.184 259.260 M74.707 259.254 C 75.083 259.352,75.698 259.352,76.074 259.254 C 76.450 259.155,76.143 259.075,75.391 259.075 C 74.639 259.075,74.331 259.155,74.707 259.254 M92.491 259.271 C 93.410 259.353,94.816 259.352,95.616 259.268 C 96.416 259.184,95.664 259.117,93.945 259.118 C 92.227 259.120,91.572 259.188,92.491 259.271 M127.051 259.254 C 127.427 259.352,128.042 259.352,128.418 259.254 C 128.794 259.155,128.486 259.075,127.734 259.075 C 126.982 259.075,126.675 259.155,127.051 259.254 M130.762 259.260 C 131.245 259.353,132.036 259.353,132.520 259.260 C 133.003 259.167,132.607 259.091,131.641 259.091 C 130.674 259.091,130.278 259.167,130.762 259.260 M134.659 259.266 C 135.353 259.353,136.583 259.354,137.394 259.269 C 138.204 259.185,137.637 259.114,136.133 259.113 C 134.629 259.111,133.966 259.180,134.659 259.266 " stroke="none" fill="#519bcd" fill-rule="evenodd"></path><path id="path3" d="M121.875 148.156 C 121.982 148.266,122.758 148.544,123.600 148.774 C 124.441 149.003,124.968 149.040,124.771 148.856 C 124.395 148.502,121.539 147.812,121.875 148.156 M130.469 159.439 C 130.469 159.761,130.052 160.848,129.542 161.854 C 129.032 162.861,128.847 163.492,129.131 163.257 C 129.797 162.704,131.049 159.435,130.720 159.106 C 130.582 158.967,130.469 159.117,130.469 159.439 M159.091 160.938 C 159.091 161.904,159.167 162.300,159.260 161.816 C 159.353 161.333,159.353 160.542,159.260 160.059 C 159.167 159.575,159.091 159.971,159.091 160.938 M36.505 176.563 C 36.505 184.404,36.557 187.612,36.621 183.691 C 36.684 179.771,36.684 173.354,36.621 169.434 C 36.557 165.513,36.505 168.721,36.505 176.563 M101.595 163.813 C 101.685 163.890,102.549 164.058,103.516 164.186 C 104.689 164.341,105.014 164.304,104.492 164.073 C 103.746 163.742,101.256 163.519,101.595 163.813 M159.096 167.383 C 159.099 168.457,159.175 168.850,159.265 168.256 C 159.354 167.663,159.352 166.784,159.259 166.303 C 159.167 165.823,159.093 166.309,159.096 167.383 M159.075 170.703 C 159.075 171.455,159.155 171.763,159.254 171.387 C 159.352 171.011,159.352 170.396,159.254 170.020 C 159.155 169.644,159.075 169.951,159.075 170.703 M67.480 170.210 C 68.608 170.289,70.454 170.289,71.582 170.210 C 72.710 170.131,71.787 170.066,69.531 170.066 C 67.275 170.066,66.353 170.131,67.480 170.210 M119.922 173.047 C 120.381 173.691,120.844 174.219,120.952 174.219 C 121.059 174.219,120.771 173.691,120.313 173.047 C 119.854 172.402,119.390 171.875,119.283 171.875 C 119.175 171.875,119.463 172.402,119.922 173.047 M64.403 173.535 C 64.698 173.911,65.313 174.198,65.770 174.173 C 66.560 174.130,66.562 174.118,65.820 173.936 C 65.391 173.830,64.775 173.543,64.453 173.298 C 63.944 172.910,63.937 172.941,64.403 173.535 M159.158 186.914 C 159.158 193.574,159.211 196.354,159.276 193.091 C 159.342 189.828,159.342 184.379,159.277 180.981 C 159.212 177.584,159.158 180.254,159.158 186.914 M131.836 179.150 C 131.134 179.748,130.990 179.986,131.477 179.744 C 132.193 179.388,133.537 178.102,133.153 178.139 C 133.073 178.147,132.480 178.602,131.836 179.150 M55.957 179.588 C 58.052 179.658,61.479 179.658,63.574 179.588 C 65.669 179.518,63.955 179.460,59.766 179.460 C 55.576 179.460,53.862 179.518,55.957 179.588 M141.309 181.867 C 139.858 183.054,138.672 184.119,138.672 184.233 C 138.672 184.449,140.615 182.944,142.969 180.904 C 145.289 178.893,144.095 179.586,141.309 181.867 M129.082 181.212 C 128.878 181.406,128.359 181.649,127.930 181.753 C 127.189 181.931,127.191 181.943,127.980 181.986 C 128.437 182.011,129.029 181.768,129.297 181.445 C 129.827 180.806,129.679 180.645,129.082 181.212 M113.642 184.277 L 112.695 185.352 113.672 184.522 C 114.209 184.066,114.912 183.597,115.234 183.479 C 115.736 183.296,115.732 183.260,115.205 183.234 C 114.866 183.217,114.163 183.687,113.642 184.277 M55.957 183.885 C 57.837 183.956,60.913 183.956,62.793 183.885 C 64.673 183.813,63.135 183.754,59.375 183.754 C 55.615 183.754,54.077 183.813,55.957 183.885 M66.895 183.863 C 67.271 183.961,67.886 183.961,68.262 183.863 C 68.638 183.765,68.330 183.684,67.578 183.684 C 66.826 183.684,66.519 183.765,66.895 183.863 M136.523 185.776 L 135.352 186.783 136.621 185.943 C 137.319 185.481,137.891 185.027,137.891 184.934 C 137.891 184.642,137.725 184.744,136.523 185.776 M111.161 187.072 L 110.018 188.477 111.336 187.220 C 112.062 186.528,112.576 185.896,112.480 185.815 C 112.384 185.735,111.790 186.300,111.161 187.072 M133.203 188.329 C 131.842 189.522,131.841 189.524,133.094 188.691 C 133.785 188.231,134.455 187.687,134.582 187.482 C 134.958 186.872,134.646 187.064,133.203 188.329 M65.703 188.572 C 67.572 188.643,70.736 188.644,72.734 188.573 C 74.732 188.502,73.203 188.443,69.336 188.443 C 65.469 188.442,63.834 188.500,65.703 188.572 M108.573 190.137 L 107.227 191.602 108.691 190.255 C 109.497 189.515,110.156 188.856,110.156 188.791 C 110.156 188.492,109.826 188.773,108.573 190.137 M36.493 199.023 C 36.494 203.535,36.551 205.327,36.620 203.006 C 36.689 200.685,36.689 196.993,36.619 194.803 C 36.550 192.613,36.493 194.512,36.493 199.023 M106.250 192.773 C 105.745 193.311,105.495 193.744,105.694 193.738 C 106.028 193.726,107.637 191.797,107.313 191.797 C 107.233 191.797,106.755 192.236,106.250 192.773 M66.309 193.244 C 66.792 193.338,67.583 193.338,68.066 193.244 C 68.550 193.151,68.154 193.075,67.188 193.075 C 66.221 193.075,65.825 193.151,66.309 193.244 M135.395 195.242 C 135.286 195.418,135.716 195.486,136.349 195.393 C 136.982 195.300,137.500 195.156,137.500 195.073 C 137.500 194.775,135.589 194.929,135.395 195.242 M138.867 196.601 C 139.778 197.832,141.406 199.196,141.406 198.728 C 141.406 198.658,140.588 197.816,139.588 196.859 L 137.770 195.117 138.867 196.601 M104.297 196.997 C 104.297 197.064,104.868 197.636,105.566 198.267 L 106.836 199.414 105.689 198.145 C 104.619 196.961,104.297 196.695,104.297 196.997 M68.749 198.585 C 68.941 198.781,70.388 198.761,72.139 198.538 L 75.195 198.149 71.805 198.195 C 69.867 198.222,68.557 198.389,68.749 198.585 M159.142 205.273 C 159.143 208.711,159.203 210.065,159.275 208.282 C 159.348 206.500,159.347 203.687,159.274 202.032 C 159.201 200.377,159.142 201.836,159.142 205.273 M107.031 199.854 C 107.031 199.990,107.646 200.782,108.398 201.614 C 109.150 202.446,109.766 203.016,109.766 202.881 C 109.766 202.745,109.150 201.953,108.398 201.120 C 107.646 200.288,107.031 199.718,107.031 199.854 M143.677 201.855 C 144.753 203.091,146.300 204.717,147.115 205.469 C 147.930 206.221,147.136 205.210,145.350 203.223 C 143.564 201.235,142.017 199.609,141.911 199.609 C 141.806 199.609,142.600 200.620,143.677 201.855 M134.463 200.586 C 134.553 201.240,134.284 201.405,132.813 201.601 L 131.055 201.836 132.887 201.894 C 134.885 201.958,135.429 201.554,134.777 200.491 C 134.391 199.862,134.364 199.870,134.463 200.586 M68.759 202.461 C 69.107 202.770,73.450 203.071,73.267 202.774 C 73.166 202.612,72.069 202.438,70.828 202.388 C 69.588 202.337,68.656 202.371,68.759 202.461 M112.305 205.859 C 113.580 207.148,114.712 208.203,114.819 208.203 C 114.927 208.203,113.971 207.148,112.695 205.859 C 111.420 204.570,110.288 203.516,110.181 203.516 C 110.073 203.516,111.029 204.570,112.305 205.859 M81.174 205.957 C 80.867 206.440,80.222 207.539,79.739 208.398 C 78.706 210.237,79.834 208.806,81.174 206.576 C 82.126 204.994,82.125 204.455,81.174 205.957 M89.232 206.209 C 89.378 206.444,89.860 206.831,90.303 207.068 C 90.881 207.377,91.035 207.379,90.846 207.072 C 90.700 206.837,90.219 206.451,89.775 206.213 C 89.197 205.904,89.043 205.903,89.232 206.209 M36.504 220.898 C 36.504 228.418,36.557 231.439,36.621 227.612 C 36.685 223.784,36.685 217.632,36.620 213.940 C 36.556 210.247,36.504 213.379,36.504 220.898 M147.260 210.657 C 146.935 210.919,145.712 212.188,144.542 213.477 C 142.440 215.792,142.448 215.787,145.231 213.096 C 146.780 211.598,148.047 210.324,148.047 210.264 C 148.047 210.078,147.870 210.166,147.260 210.657 M159.101 213.672 C 159.101 214.854,159.175 215.337,159.264 214.746 C 159.354 214.155,159.354 213.188,159.264 212.598 C 159.175 212.007,159.101 212.490,159.101 213.672 M75.561 214.715 C 74.960 215.504,74.667 216.026,74.911 215.875 C 75.411 215.566,77.102 213.281,76.831 213.281 C 76.734 213.281,76.163 213.927,75.561 214.715 M132.454 214.202 C 132.887 214.572,135.173 214.796,134.957 214.447 C 134.827 214.236,134.173 214.063,133.506 214.063 C 132.838 214.063,132.365 214.125,132.454 214.202 M101.758 216.636 L 100.586 217.643 101.953 216.760 C 103.707 215.629,103.711 215.625,103.288 215.627 C 103.091 215.628,102.402 216.082,101.758 216.636 M87.020 217.676 C 86.165 218.993,85.399 220.562,85.827 220.117 C 86.375 219.548,87.986 216.797,87.772 216.797 C 87.672 216.797,87.333 217.192,87.020 217.676 M64.840 226.074 L 56.055 234.961 64.941 226.175 C 73.199 218.011,74.004 217.188,73.727 217.188 C 73.672 217.188,69.673 221.187,64.840 226.074 M139.063 219.336 C 138.114 220.303,137.425 221.094,137.533 221.094 C 137.640 221.094,138.504 220.303,139.453 219.336 C 140.402 218.369,141.090 217.578,140.983 217.578 C 140.876 217.578,140.011 218.369,139.063 219.336 M159.121 221.875 C 159.121 223.701,159.188 224.448,159.270 223.535 C 159.353 222.622,159.353 221.128,159.270 220.215 C 159.188 219.302,159.121 220.049,159.121 221.875 M83.620 222.761 C 82.507 224.132,82.463 224.247,83.362 223.438 C 84.297 222.596,85.406 221.080,85.072 221.101 C 85.011 221.105,84.357 221.852,83.620 222.761 M109.082 223.268 C 108.169 223.815,107.422 224.355,107.422 224.468 C 107.422 224.679,110.057 223.182,110.723 222.594 C 111.394 222.000,110.769 222.257,109.082 223.268 M80.639 225.488 L 79.492 226.758 80.762 225.611 C 81.945 224.541,82.211 224.219,81.909 224.219 C 81.842 224.219,81.271 224.790,80.639 225.488 M89.063 225.242 C 88.525 225.578,87.751 226.321,87.341 226.892 C 86.727 227.746,86.865 227.688,88.122 226.564 C 88.962 225.812,89.815 225.065,90.020 224.903 C 90.655 224.400,90.085 224.601,89.063 225.242 M159.083 226.758 C 159.087 227.617,159.167 227.923,159.261 227.437 C 159.354 226.951,159.351 226.248,159.253 225.874 C 159.155 225.501,159.079 225.898,159.083 226.758 M101.953 227.379 C 101.304 227.909,101.239 228.042,101.758 227.774 C 103.032 227.115,103.738 226.574,103.320 226.577 C 103.105 226.579,102.490 226.939,101.953 227.379 M159.075 229.688 C 159.075 230.439,159.155 230.747,159.254 230.371 C 159.352 229.995,159.352 229.380,159.254 229.004 C 159.155 228.628,159.075 228.936,159.075 229.688 M72.656 232.487 C 71.475 233.577,70.859 234.286,71.289 234.062 C 72.025 233.679,75.361 230.448,74.982 230.486 C 74.884 230.496,73.838 231.396,72.656 232.487 M65.234 239.495 C 62.979 241.648,60.605 243.749,59.961 244.164 C 59.316 244.579,58.995 244.920,59.247 244.920 C 59.499 244.921,60.208 244.499,60.822 243.983 C 62.523 242.551,69.753 235.573,69.531 235.577 C 69.424 235.579,67.490 237.342,65.234 239.495 M95.621 237.806 L 94.953 239.258 95.719 238.336 C 96.140 237.828,96.484 237.169,96.484 236.871 C 96.484 236.067,96.358 236.205,95.621 237.806 " stroke="none" fill="#0764ad" fill-rule="evenodd"></path><path id="path4" d="M197.520 143.262 C 197.420 143.423,199.734 143.501,202.662 143.435 C 207.165 143.333,208.056 143.410,208.439 143.935 C 208.852 144.499,208.913 144.499,209.129 143.937 C 209.259 143.597,209.204 143.419,209.007 143.541 C 208.809 143.663,208.537 143.584,208.402 143.366 C 208.118 142.906,197.802 142.808,197.520 143.262 M273.627 147.275 C 273.491 147.495,273.612 147.627,273.897 147.568 C 274.292 147.486,274.460 148.473,274.609 151.758 L 274.805 156.055 277.930 156.078 L 281.055 156.102 278.027 155.965 L 275.000 155.828 275.000 151.969 C 275.000 147.366,274.541 145.796,273.627 147.275 M266.406 147.656 C 266.729 147.865,267.432 148.025,267.969 148.013 C 268.863 147.994,268.880 147.964,268.164 147.656 C 267.008 147.159,265.637 147.159,266.406 147.656 M290.670 151.989 C 290.968 152.178,292.002 152.321,292.969 152.307 C 295.052 152.277,294.683 152.090,292.037 151.832 C 290.862 151.718,290.337 151.778,290.670 151.989 M241.504 155.358 C 242.095 155.447,243.062 155.447,243.652 155.358 C 244.243 155.268,243.760 155.195,242.578 155.195 C 241.396 155.195,240.913 155.268,241.504 155.358 M260.807 155.729 C 260.447 156.089,260.478 163.583,260.840 163.808 C 261.001 163.908,261.077 162.223,261.008 160.062 C 260.915 157.126,261.013 156.052,261.399 155.808 C 261.682 155.628,261.724 155.478,261.491 155.475 C 261.258 155.471,260.951 155.586,260.807 155.729 M310.156 155.739 C 310.693 155.849,311.278 156.140,311.456 156.387 C 311.671 156.687,311.726 156.642,311.621 156.250 C 311.532 155.919,310.966 155.637,310.321 155.602 C 309.338 155.549,309.315 155.568,310.156 155.739 M262.994 156.140 C 263.587 156.229,264.466 156.227,264.947 156.134 C 265.427 156.042,264.941 155.968,263.867 155.971 C 262.793 155.974,262.400 156.050,262.994 156.140 M282.422 159.673 C 282.422 163.448,282.384 163.626,281.543 163.804 C 280.921 163.937,280.994 163.973,281.794 163.929 L 282.925 163.867 282.844 159.969 C 282.738 154.844,282.422 154.623,282.422 159.673 M233.808 157.318 C 233.651 157.727,233.787 157.739,234.481 157.378 C 235.706 156.741,235.741 156.675,234.820 156.744 C 234.372 156.778,233.916 157.036,233.808 157.318 M253.906 159.570 C 254.635 160.322,255.319 160.938,255.427 160.938 C 255.534 160.938,255.026 160.322,254.297 159.570 C 253.568 158.818,252.884 158.203,252.776 158.203 C 252.669 158.203,253.177 158.818,253.906 159.570 M302.266 158.624 C 302.148 158.932,302.293 159.410,302.588 159.685 C 303.175 160.234,303.230 159.978,302.775 158.818 C 302.547 158.236,302.432 158.192,302.266 158.624 M230.639 159.863 L 229.492 161.133 230.762 159.986 C 231.460 159.354,232.031 158.783,232.031 158.716 C 232.031 158.414,231.709 158.680,230.639 159.863 M227.130 164.880 C 226.786 165.545,226.574 166.158,226.659 166.242 C 226.744 166.327,227.105 165.783,227.463 165.034 C 228.266 163.350,227.988 163.221,227.130 164.880 M274.776 172.070 C 274.776 176.797,274.833 178.677,274.901 176.248 C 274.970 173.819,274.970 169.952,274.901 167.654 C 274.832 165.356,274.776 167.344,274.776 172.070 M205.859 164.209 C 205.859 164.289,206.128 165.116,206.456 166.047 C 206.785 166.977,206.962 167.975,206.851 168.265 C 206.740 168.554,206.823 168.683,207.036 168.552 C 207.248 168.421,207.422 168.529,207.422 168.792 C 207.422 169.055,207.509 169.184,207.614 169.078 C 207.819 168.873,206.289 164.063,206.019 164.063 C 205.931 164.063,205.859 164.128,205.859 164.209 M248.828 168.066 C 248.828 168.417,249.016 168.820,249.245 168.961 C 249.915 169.375,249.980 169.005,249.382 168.186 C 248.919 167.553,248.828 167.533,248.828 168.066 M253.548 168.110 C 253.934 168.446,257.013 168.646,256.813 168.322 C 256.693 168.128,255.872 167.969,254.990 167.969 C 254.107 167.969,253.459 168.032,253.548 168.110 M251.079 168.636 C 251.565 168.729,252.268 168.726,252.641 168.628 C 253.015 168.530,252.617 168.454,251.758 168.458 C 250.898 168.462,250.593 168.542,251.079 168.636 M207.648 170.262 C 207.498 170.505,207.541 170.703,207.744 170.703 C 207.946 170.703,208.206 171.063,208.321 171.504 C 208.526 172.288,208.412 172.302,202.702 172.187 C 199.497 172.123,196.874 172.202,196.874 172.363 C 196.875 172.524,199.611 172.656,202.956 172.656 L 209.037 172.656 208.768 171.777 C 208.302 170.252,207.949 169.775,207.648 170.262 M225.329 172.870 C 225.256 174.062,225.315 175.337,225.461 175.702 C 225.607 176.068,225.739 175.093,225.754 173.535 C 225.786 170.192,225.520 169.775,225.329 172.870 M234.864 173.242 C 234.868 174.102,234.948 174.407,235.042 173.921 C 235.135 173.435,235.132 172.732,235.034 172.359 C 234.936 171.985,234.860 172.383,234.864 173.242 M226.077 180.010 C 225.954 180.478,226.013 180.762,226.208 180.642 C 226.403 180.521,226.563 180.638,226.563 180.901 C 226.563 181.165,226.654 181.289,226.766 181.177 C 226.878 181.064,226.819 180.565,226.634 180.066 L 226.299 179.159 226.077 180.010 M196.875 180.740 C 204.052 181.018,211.630 181.030,211.464 180.762 C 211.364 180.601,207.381 180.504,202.614 180.547 C 197.846 180.591,195.264 180.677,196.875 180.740 M247.690 181.790 L 246.747 183.008 247.864 181.945 C 248.479 181.361,248.903 180.813,248.807 180.727 C 248.711 180.642,248.208 181.120,247.690 181.790 M287.597 182.733 C 287.610 183.471,287.766 183.874,287.962 183.678 C 288.159 183.482,288.149 182.932,287.940 182.390 C 287.598 181.506,287.576 181.528,287.597 182.733 M279.102 183.203 L 276.758 183.462 278.981 183.528 C 280.204 183.564,281.313 183.418,281.445 183.203 C 281.578 182.988,281.632 182.842,281.566 182.878 C 281.500 182.914,280.391 183.061,279.102 183.203 M282.565 187.305 C 282.566 189.453,282.631 190.282,282.710 189.147 C 282.789 188.012,282.789 186.254,282.708 185.241 C 282.628 184.228,282.564 185.156,282.565 187.305 M311.231 184.390 C 312.015 185.153,312.223 185.126,311.906 184.301 C 311.785 183.983,311.429 183.724,311.116 183.724 C 310.663 183.724,310.686 183.859,311.231 184.390 M228.646 185.333 C 228.646 185.665,228.734 185.849,228.842 185.741 C 229.191 185.393,230.459 186.809,230.202 187.259 C 230.065 187.499,230.097 187.565,230.273 187.406 C 230.664 187.051,231.710 187.854,231.435 188.299 C 231.326 188.474,231.404 188.721,231.607 188.847 C 232.800 189.584,232.106 188.136,230.516 186.570 C 229.361 185.432,228.646 184.959,228.646 185.333 M253.885 187.402 L 252.539 188.867 254.004 187.521 C 255.367 186.268,255.648 185.938,255.350 185.938 C 255.285 185.938,254.626 186.597,253.885 187.402 M287.685 189.262 C 287.769 189.904,287.849 190.562,287.864 190.723 C 287.879 190.884,288.374 190.992,288.965 190.962 C 289.886 190.917,289.914 190.885,289.160 190.740 C 288.668 190.645,288.279 190.282,288.275 189.914 C 288.272 189.553,288.104 188.996,287.901 188.676 C 287.636 188.256,287.576 188.419,287.685 189.262 M313.312 189.160 C 313.295 189.536,313.095 189.844,312.868 189.844 C 312.640 189.844,312.574 190.038,312.721 190.276 C 312.907 190.577,313.090 190.548,313.324 190.178 C 313.586 189.766,313.661 189.800,313.666 190.332 C 313.669 190.708,313.854 191.016,314.076 191.016 C 314.335 191.016,314.354 190.769,314.129 190.332 C 313.936 189.956,313.680 189.385,313.560 189.063 C 313.388 188.598,313.337 188.618,313.312 189.160 M214.459 190.332 C 214.454 190.953,214.926 191.008,219.629 190.931 L 224.805 190.847 219.937 190.723 C 216.658 190.640,214.971 190.444,214.767 190.124 C 214.558 189.795,214.463 189.859,214.459 190.332 M236.523 190.834 C 237.168 191.130,238.047 191.367,238.477 191.363 C 238.906 191.358,238.467 191.105,237.500 190.800 C 235.331 190.117,234.983 190.129,236.523 190.834 M184.098 190.915 C 185.557 190.990,187.843 190.990,189.176 190.914 C 190.510 190.838,189.316 190.776,186.523 190.777 C 183.730 190.777,182.639 190.840,184.098 190.915 M292.090 190.911 C 293.003 190.993,294.497 190.993,295.410 190.911 C 296.323 190.829,295.576 190.761,293.750 190.761 C 291.924 190.761,291.177 190.829,292.090 190.911 M317.480 190.913 C 318.608 190.992,320.454 190.992,321.582 190.913 C 322.710 190.834,321.787 190.770,319.531 190.770 C 317.275 190.770,316.353 190.834,317.480 190.913 M240.430 191.653 C 243.228 191.943,246.397 191.969,246.230 191.699 C 246.130 191.538,244.520 191.434,242.653 191.469 C 240.786 191.503,239.785 191.586,240.430 191.653 M274.902 191.689 C 275.601 191.775,276.743 191.775,277.441 191.689 C 278.140 191.602,277.568 191.531,276.172 191.531 C 274.775 191.531,274.204 191.602,274.902 191.689 M179.925 200.618 C 179.579 201.519,179.633 247.186,179.980 247.401 C 180.142 247.500,180.227 237.052,180.170 224.182 L 180.066 200.781 180.876 200.781 C 181.322 200.781,181.578 200.605,181.445 200.391 C 181.076 199.793,180.190 199.926,179.925 200.618 M200.884 200.671 C 201.478 200.761,202.357 200.758,202.837 200.666 C 203.318 200.573,202.832 200.499,201.758 200.502 C 200.684 200.505,200.291 200.581,200.884 200.671 M361.719 208.984 L 361.719 213.281 365.332 213.201 L 368.945 213.121 365.503 212.990 L 362.060 212.859 362.182 208.773 C 362.250 206.525,362.173 204.686,362.012 204.687 C 361.851 204.687,361.719 206.621,361.719 208.984 M352.442 208.398 C 352.447 209.258,352.527 209.563,352.620 209.077 C 352.713 208.592,352.710 207.888,352.612 207.515 C 352.514 207.142,352.438 207.539,352.442 208.398 M189.498 209.473 C 189.530 210.077,189.597 210.149,189.716 209.703 C 189.866 209.135,190.673 209.048,196.197 209.003 C 199.667 208.975,202.587 208.872,202.685 208.773 C 202.784 208.674,199.847 208.594,196.159 208.594 L 189.453 208.594 189.498 209.473 M269.173 212.249 C 269.263 212.325,269.951 212.501,270.703 212.639 C 271.665 212.815,271.897 212.776,271.484 212.505 C 270.955 212.158,268.786 211.917,269.173 212.249 M343.479 212.383 C 344.120 212.549,344.173 213.010,344.065 217.416 C 343.999 220.084,344.077 222.267,344.238 222.266 C 344.399 222.266,344.531 219.980,344.531 217.188 C 344.531 212.168,344.521 212.110,343.652 212.155 C 342.958 212.191,342.921 212.238,343.479 212.383 M248.595 213.045 C 248.480 213.345,248.455 214.267,248.541 215.096 C 248.692 216.552,248.699 216.541,248.762 214.779 C 248.800 213.741,249.038 212.871,249.316 212.759 C 249.699 212.604,249.696 212.555,249.304 212.531 C 249.029 212.514,248.710 212.745,248.595 213.045 M255.157 212.782 L 257.384 212.927 257.501 214.987 L 257.617 217.046 258.577 215.847 C 259.424 214.789,259.435 214.736,258.674 215.393 C 257.725 216.212,257.372 215.440,258.281 214.531 C 258.646 214.167,258.636 214.063,258.236 214.063 C 257.927 214.063,257.797 213.773,257.911 213.339 C 258.081 212.688,257.842 212.617,255.515 212.627 C 252.935 212.638,252.935 212.638,255.157 212.782 M324.306 229.785 C 324.354 239.292,324.441 244.346,324.500 241.016 C 324.773 225.575,324.778 212.500,324.512 212.500 C 324.351 212.500,324.258 220.278,324.306 229.785 M326.367 212.749 C 329.103 213.037,333.205 213.064,333.204 212.793 C 333.204 212.632,331.401 212.528,329.199 212.563 C 326.997 212.597,325.723 212.681,326.367 212.749 M348.535 212.820 C 347.688 212.940,347.656 213.091,347.656 217.019 L 347.656 221.094 350.293 221.018 L 352.930 220.943 350.488 220.805 L 348.047 220.666 348.047 216.974 L 348.047 213.281 350.391 213.281 C 351.680 213.281,352.734 213.149,352.733 212.988 C 352.732 212.693,350.159 212.590,348.535 212.820 M310.243 213.219 C 309.886 213.446,310.053 213.669,310.829 214.001 C 311.766 214.402,311.821 214.393,311.237 213.933 C 310.864 213.639,310.673 213.285,310.813 213.145 C 311.164 212.795,310.847 212.836,310.243 213.219 M294.043 213.895 C 292.528 214.717,292.700 215.001,294.238 214.218 C 295.711 213.469,295.971 213.275,295.475 213.297 C 295.278 213.305,294.634 213.575,294.043 213.895 M332.903 214.844 C 332.903 215.596,332.984 215.903,333.082 215.527 C 333.180 215.151,333.180 214.536,333.082 214.160 C 332.984 213.784,332.903 214.092,332.903 214.844 M334.446 215.283 C 333.519 216.158,332.827 216.941,332.908 217.023 C 332.990 217.104,333.829 216.384,334.774 215.421 C 336.915 213.239,336.706 213.150,334.446 215.283 M233.008 215.234 C 232.675 215.879,232.490 216.406,232.597 216.406 C 232.705 216.406,233.065 215.879,233.398 215.234 C 233.732 214.590,233.917 214.063,233.809 214.063 C 233.702 214.063,233.341 214.590,233.008 215.234 M291.598 215.631 C 291.463 215.850,291.145 215.909,290.891 215.764 C 290.637 215.619,290.564 215.648,290.728 215.828 C 290.892 216.009,290.542 216.696,289.949 217.356 C 289.314 218.063,289.552 217.921,290.530 217.011 C 291.442 216.161,292.188 215.414,292.188 215.350 C 292.188 215.089,291.827 215.261,291.598 215.631 M213.474 216.471 C 213.508 216.936,213.824 217.359,214.175 217.411 C 214.760 217.497,214.762 217.426,214.198 216.565 C 213.444 215.414,213.396 215.408,213.474 216.471 M314.844 216.992 C 315.573 217.744,316.257 218.359,316.364 218.359 C 316.472 218.359,315.963 217.744,315.234 216.992 C 314.506 216.240,313.821 215.625,313.714 215.625 C 313.607 215.625,314.115 216.240,314.844 216.992 M248.616 232.227 C 248.616 240.820,248.667 244.280,248.730 239.915 C 248.793 235.550,248.793 228.519,248.730 224.290 C 248.667 220.062,248.615 223.633,248.616 232.227 M369.577 219.629 L 369.531 220.703 365.625 220.703 L 361.719 220.703 361.808 229.199 L 361.898 237.695 362.011 229.395 L 362.125 221.094 365.840 221.094 C 369.734 221.094,370.221 220.868,369.805 219.261 C 369.685 218.799,369.606 218.926,369.577 219.629 M206.551 222.558 C 206.738 227.909,206.898 228.436,206.966 223.926 C 207.002 221.509,206.899 219.531,206.738 219.530 C 206.577 219.530,206.493 220.892,206.551 222.558 M306.055 220.766 C 306.484 221.003,307.371 221.657,308.025 222.219 C 308.687 222.789,308.564 222.593,307.747 221.777 C 306.940 220.972,306.054 220.318,305.777 220.324 C 305.500 220.331,305.625 220.530,306.055 220.766 M270.530 222.290 C 271.377 223.271,272.150 224.012,272.246 223.937 C 272.343 223.862,271.650 223.060,270.706 222.155 L 268.989 220.508 270.530 222.290 M259.375 222.656 C 258.916 223.301,258.628 223.828,258.736 223.828 C 258.843 223.828,259.307 223.301,259.766 222.656 C 260.225 222.012,260.512 221.484,260.405 221.484 C 260.297 221.484,259.834 222.012,259.375 222.656 M340.144 221.767 C 340.846 221.854,341.900 221.853,342.487 221.763 C 343.074 221.674,342.500 221.603,341.211 221.605 C 339.922 221.608,339.442 221.681,340.144 221.767 M352.482 225.195 C 352.481 227.129,352.547 227.969,352.629 227.063 C 352.711 226.156,352.712 224.574,352.631 223.547 C 352.551 222.520,352.484 223.262,352.482 225.195 M219.141 225.036 C 218.634 225.394,218.633 225.429,219.133 225.293 C 219.451 225.206,220.033 225.500,220.426 225.947 C 221.124 226.740,221.126 226.734,220.486 225.684 C 220.126 225.093,219.808 224.612,219.779 224.615 C 219.750 224.619,219.463 224.808,219.141 225.036 M282.561 230.273 C 282.559 232.207,282.625 233.047,282.707 232.141 C 282.789 231.234,282.790 229.652,282.709 228.625 C 282.629 227.598,282.562 228.340,282.561 230.273 M310.516 228.222 C 310.400 229.062,310.459 229.541,310.656 229.344 C 310.844 229.156,310.936 228.497,310.859 227.880 C 310.730 226.847,310.703 226.874,310.516 228.222 M197.759 228.015 C 198.353 228.104,199.232 228.102,199.712 228.009 C 200.193 227.917,199.707 227.843,198.633 227.846 C 197.559 227.849,197.166 227.925,197.759 228.015 M294.652 229.883 C 294.654 231.172,294.727 231.652,294.814 230.950 C 294.901 230.248,294.899 229.193,294.810 228.606 C 294.721 228.019,294.650 228.594,294.652 229.883 M320.043 230.273 C 320.045 231.562,320.118 232.043,320.205 231.341 C 320.292 230.639,320.290 229.584,320.201 228.997 C 320.112 228.410,320.041 228.984,320.043 230.273 M233.917 229.183 C 233.581 229.588,233.589 229.837,233.951 230.192 C 234.215 230.452,234.397 230.488,234.357 230.273 C 234.201 229.455,234.389 228.869,234.739 229.085 C 234.939 229.208,235.195 229.160,235.307 228.978 C 235.651 228.422,234.394 228.608,233.917 229.183 M333.203 237.866 L 333.203 247.216 331.934 247.374 C 330.684 247.529,330.687 247.532,332.129 247.594 L 333.594 247.656 333.594 238.086 C 333.594 232.822,333.506 228.516,333.398 228.516 C 333.291 228.516,333.203 232.723,333.203 237.866 M352.472 231.445 C 352.474 232.949,352.544 233.517,352.629 232.706 C 352.713 231.896,352.712 230.665,352.626 229.972 C 352.539 229.278,352.470 229.941,352.472 231.445 M222.749 229.489 C 222.907 229.664,222.672 230.440,222.227 231.212 C 221.743 232.052,221.678 232.303,222.065 231.836 C 223.224 230.439,223.478 229.757,222.950 229.453 C 222.681 229.298,222.590 229.315,222.749 229.489 M236.118 233.496 C 236.720 234.409,237.288 235.156,237.379 235.156 C 237.660 235.156,236.165 232.779,235.578 232.294 C 235.273 232.042,235.516 232.583,236.118 233.496 M189.552 234.180 C 189.556 235.039,189.636 235.345,189.729 234.859 C 189.823 234.373,189.819 233.670,189.722 233.296 C 189.624 232.923,189.547 233.320,189.552 234.180 M285.195 235.179 C 285.153 236.267,286.100 237.859,286.532 237.426 C 286.680 237.279,286.620 236.664,286.400 236.060 C 286.179 235.455,285.968 235.225,285.929 235.547 C 285.891 235.869,285.719 235.693,285.547 235.156 L 285.234 234.180 285.195 235.179 M352.450 235.938 C 352.450 236.904,352.526 237.300,352.619 236.816 C 352.713 236.333,352.713 235.542,352.619 235.059 C 352.526 234.575,352.450 234.971,352.450 235.938 M308.424 237.402 C 307.580 238.481,307.512 238.663,308.167 238.090 C 308.951 237.406,309.984 235.937,309.682 235.938 C 309.620 235.938,309.055 236.597,308.424 237.402 M270.483 237.988 L 269.336 239.258 270.605 238.111 C 271.304 237.479,271.875 236.908,271.875 236.841 C 271.875 236.539,271.553 236.805,270.483 237.988 M229.571 238.541 C 229.737 238.975,229.670 239.098,229.368 238.911 C 229.061 238.721,229.000 238.852,229.178 239.315 C 229.340 239.739,229.500 239.821,229.597 239.529 C 229.697 239.229,230.030 239.379,230.511 239.939 C 231.179 240.717,231.170 240.648,230.439 239.355 C 229.575 237.829,229.141 237.422,229.571 238.541 M194.043 238.964 C 196.675 239.031,200.981 239.031,203.613 238.964 C 206.245 238.896,204.092 238.841,198.828 238.841 C 193.564 238.841,191.411 238.896,194.043 238.964 M209.067 242.862 L 208.984 247.248 201.660 247.364 L 194.336 247.479 201.672 247.568 C 210.203 247.671,209.452 248.166,209.277 242.552 L 209.149 238.477 209.067 242.862 M367.773 239.453 C 366.692 239.728,366.677 239.754,367.578 239.792 C 368.115 239.814,368.818 239.661,369.141 239.453 C 369.805 239.023,369.462 239.023,367.773 239.453 M301.855 240.119 C 302.339 240.213,303.130 240.213,303.613 240.119 C 304.097 240.026,303.701 239.950,302.734 239.950 C 301.768 239.950,301.372 240.026,301.855 240.119 M278.125 242.969 C 277.444 243.828,276.975 244.531,277.083 244.531 C 277.190 244.531,277.835 243.828,278.516 242.969 C 279.196 242.109,279.665 241.406,279.558 241.406 C 279.450 241.406,278.806 242.109,278.125 242.969 M288.892 241.797 C 289.086 242.119,289.249 242.515,289.252 242.676 C 289.255 242.837,289.404 242.983,289.583 243.001 C 290.278 243.071,290.203 242.672,289.388 241.957 C 288.875 241.507,288.678 241.444,288.892 241.797 M224.758 242.285 C 224.600 242.554,224.202 243.193,223.874 243.705 C 223.294 244.613,223.301 244.623,224.121 244.111 C 224.585 243.821,224.891 243.511,224.801 243.420 C 224.711 243.330,224.813 242.928,225.027 242.527 C 225.459 241.721,225.218 241.505,224.758 242.285 M315.014 243.066 L 313.867 244.336 315.137 243.189 C 316.320 242.119,316.586 241.797,316.284 241.797 C 316.217 241.797,315.646 242.368,315.014 243.066 M257.946 247.070 C 257.948 248.789,258.017 249.444,258.099 248.525 C 258.182 247.606,258.180 246.200,258.096 245.400 C 258.013 244.600,257.945 245.352,257.946 247.070 M310.547 246.094 C 309.795 246.505,309.320 246.850,309.492 246.859 C 309.906 246.880,312.109 245.735,312.109 245.498 C 312.109 245.242,312.087 245.251,310.547 246.094 M185.454 247.542 C 185.940 247.635,186.643 247.632,187.016 247.534 C 187.390 247.436,186.992 247.360,186.133 247.364 C 185.273 247.368,184.968 247.448,185.454 247.542 M189.756 247.552 C 190.675 247.635,192.081 247.634,192.881 247.550 C 193.681 247.466,192.930 247.398,191.211 247.400 C 189.492 247.401,188.838 247.470,189.756 247.552 M213.579 247.542 C 214.065 247.635,214.768 247.632,215.141 247.534 C 215.515 247.436,215.117 247.360,214.258 247.364 C 213.398 247.368,213.093 247.448,213.579 247.542 M218.457 247.545 C 219.048 247.635,220.015 247.635,220.605 247.545 C 221.196 247.456,220.713 247.383,219.531 247.383 C 218.350 247.383,217.866 247.456,218.457 247.545 M265.527 247.942 C 266.440 248.025,267.935 248.025,268.848 247.942 C 269.761 247.860,269.014 247.793,267.188 247.793 C 265.361 247.793,264.614 247.860,265.527 247.942 M301.281 247.944 C 302.308 248.025,303.890 248.024,304.797 247.942 C 305.704 247.860,304.863 247.794,302.930 247.795 C 300.996 247.796,300.254 247.863,301.281 247.944 M361.816 247.941 C 362.622 248.025,363.940 248.025,364.746 247.941 C 365.552 247.857,364.893 247.788,363.281 247.788 C 361.670 247.788,361.011 247.857,361.816 247.941 M248.563 251.172 C 248.563 252.568,248.633 253.140,248.720 252.441 C 248.807 251.743,248.807 250.601,248.720 249.902 C 248.633 249.204,248.563 249.775,248.563 251.172 M257.960 254.688 C 257.960 257.158,258.024 258.169,258.101 256.934 C 258.179 255.698,258.179 253.677,258.101 252.441 C 258.024 251.206,257.960 252.217,257.960 254.688 M248.578 258.564 C 248.612 259.387,248.858 259.961,249.219 260.058 C 249.614 260.165,249.658 260.111,249.352 259.892 C 249.102 259.714,248.814 259.041,248.711 258.397 C 248.539 257.325,248.527 257.339,248.578 258.564 M257.227 259.766 L 256.055 260.064 257.106 260.110 C 257.684 260.135,258.266 259.980,258.398 259.766 C 258.531 259.551,258.586 259.396,258.519 259.421 C 258.453 259.447,257.871 259.602,257.227 259.766 " stroke="none" fill="#5c5c5c" fill-rule="evenodd"></path></g></svg>